<svg width="20" height="20" viewBox="0 0 20 20" fill="none" xmlns="http://www.w3.org/2000/svg">
<path d="M6.28462 17.3529C6.15402 17.357 6.07239 17.304 6.00097 17.2328C5.4908 16.7339 4.97655 16.2391 4.47047 15.7382C3.89908 15.1721 3.33586 14.5959 2.76039 14.0339C2.63183 13.9076 2.59918 13.7753 2.65019 13.6266C2.76243 13.2907 2.87467 12.9506 3.01547 12.6248C3.92153 10.5173 5.18062 8.63385 6.6948 6.91733C8.10082 5.32298 9.69662 3.9465 11.4924 2.80826C12.1291 2.40509 12.7944 2.05079 13.4453 1.67206C13.5127 1.63337 13.5412 1.66799 13.5821 1.70668C14.2187 2.34197 14.8575 2.97727 15.4942 3.6146C16.4267 4.54515 17.3593 5.47773 18.294 6.40624C18.3531 6.46529 18.3572 6.50398 18.3205 6.57728C17.5246 8.13498 16.5594 9.57865 15.4207 10.9063C14.7003 11.7452 13.9188 12.525 13.0964 13.2642C11.2108 14.9583 9.09666 16.2961 6.72949 17.2226C6.60705 17.2714 6.48053 17.3101 6.35401 17.3509C6.3234 17.3529 6.29074 17.3509 6.28462 17.3529ZM7.63146 11.1221C7.56412 11.8633 8.25183 12.3764 8.85587 12.3723C9.53541 12.3662 10.1027 11.8063 10.1007 11.1241C10.0986 10.552 9.7007 9.88001 8.75791 9.89426C8.14775 9.90444 7.63146 10.4583 7.63146 11.1221ZM12.3944 8.81507C13.1127 8.89041 13.6474 8.16552 13.6412 7.59742C13.6372 7.0171 13.129 6.34719 12.3597 6.3533C11.7455 6.35737 11.1292 6.91733 11.1557 7.6076C11.1822 8.3162 11.674 8.81507 12.3944 8.81507Z" fill="#E5E5E5"/>
<path d="M18.7653 5.61827C17.2981 4.17256 15.8288 2.72686 14.3452 1.26486C14.6289 1.15287 14.8942 1.04291 15.1635 0.941104C16.1492 0.564406 17.1613 0.29359 18.2 0.13273C18.6184 0.0675711 19.0428 0.0248108 19.4673 0.00241249C19.8836 -0.0199858 20.0019 0.110331 19.9999 0.52979C19.9958 1.24246 19.8713 1.93885 19.7183 2.63319C19.4918 3.6574 19.1734 4.65515 18.7571 5.61827C18.751 5.63049 18.7449 5.64271 18.7388 5.65289C18.7469 5.64067 18.7571 5.62845 18.7653 5.61827Z" fill="#E5E5E5"/>
<path d="M6.97031 5.98275C6.92949 6.03162 6.89276 6.08253 6.84787 6.12732C5.62551 7.39995 4.58885 8.80901 3.70728 10.3341C3.3971 10.8717 3.11957 11.4255 2.83183 11.9753C2.78694 12.0608 2.74408 12.0812 2.65021 12.0547C1.8666 11.8307 1.08298 11.6149 0.299363 11.393C0.050401 11.3217 -0.0618358 11.0835 0.0340756 10.8391C0.0646856 10.7617 0.10754 10.6864 0.152434 10.6151C1.18705 9.00245 2.54002 7.72778 4.24602 6.8461C5.06432 6.42257 5.92753 6.12325 6.83766 5.96035C6.87644 5.95425 6.91521 5.95425 6.95398 5.95221C6.9601 5.96239 6.96419 5.97257 6.97031 5.98275Z" fill="#E5E5E5"/>
<path d="M7.90088 17.188C9.01917 16.6505 10.0946 16.0457 11.117 15.3453C12.1373 14.6468 13.0883 13.8609 13.9984 13.024C14.0106 13.0321 14.0249 13.0403 14.0372 13.0484C14.029 13.1156 14.0229 13.1828 14.0106 13.25C13.7066 14.8484 12.9944 16.2514 11.9741 17.5057C11.2292 18.422 10.3538 19.1937 9.34975 19.8188C9.27017 19.8697 9.1865 19.9165 9.09875 19.9512C8.92121 20.0204 8.7498 19.9613 8.67225 19.7883C8.59471 19.6152 8.5294 19.436 8.47635 19.2548C8.28248 18.5808 8.09474 17.9048 7.90496 17.2308C7.90292 17.2226 7.90292 17.2125 7.90088 17.188Z" fill="#E5E5E5"/>
<path d="M5.23356 17.7011C5.09683 17.805 4.96419 17.9231 4.81522 18.0147C4.23159 18.3771 3.60919 18.6683 2.97046 18.9167C2.04808 19.2771 1.11753 19.6131 0.189026 19.9593C0.146172 19.9756 0.0992369 19.9837 0.0339355 20C0.10944 19.7821 0.174742 19.5846 0.246165 19.3891C0.672665 18.2163 1.10325 17.0434 1.65627 15.9215C1.83381 15.5631 2.01747 15.2068 2.28887 14.9054C2.31336 14.8789 2.33989 14.8525 2.35826 14.8321C3.31125 15.785 4.2622 16.7319 5.23356 17.7011Z" fill="#E5E5E5"/>
</svg>
