<svg width="17" height="17" viewBox="0 0 17 17" fill="none" xmlns="http://www.w3.org/2000/svg">
<path fill-rule="evenodd" clip-rule="evenodd" d="M15.4651 0H1.53491C0.690674 0 0 0.689941 0 1.53326V15.4667C0 16.3101 0.690674 17 1.53491 17H6H7H15.4651C16.3093 17 17 16.3101 17 15.4667V1.53326C17 0.689941 16.3093 0 15.4651 0ZM7 16.0417H11.9536C12.3757 16.0417 12.7212 15.6967 12.7212 15.2751H12.7021V13.8951C12.7021 13.4735 12.3567 13.1285 11.9346 13.1285H7V16.0417ZM6 13.1285H5.04639C4.62427 13.1285 4.27881 13.4735 4.27881 13.8951V15.2751C4.27881 15.6967 4.62427 16.0417 5.04639 16.0417H6V13.1285ZM2.24487 9.88953C1.9187 9.88953 1.65015 9.62122 1.65015 9.29535V4H4.56665V9.29535C4.56665 9.62122 4.29785 9.88953 3.97168 9.88953H2.24487ZM1.65015 2.06989V3H4.56665V2.06989C4.56665 1.74408 4.29785 1.47577 3.97168 1.47577H2.24487C1.9187 1.47577 1.65015 1.74408 1.65015 2.06989ZM12.2415 9.27618V4H15.1772V9.27618C15.1772 9.62122 14.8894 9.90869 14.5439 9.90869H12.8748C12.5293 9.90869 12.2415 9.62122 12.2415 9.27618ZM12.2415 3H15.1772V2.08905C15.1772 1.74408 14.8894 1.4566 14.5439 1.4566H12.8748C12.5293 1.4566 12.2415 1.74408 12.2415 2.08905V3Z" fill="#E5E5E5"/>
</svg>
