<svg width="14" height="23" viewBox="0 0 14 23" fill="none" xmlns="http://www.w3.org/2000/svg">
<path d="M0 8.75326C0.141674 8.57335 0.25759 8.35002 0.437903 8.21975C1.03036 7.7979 1.79669 8.08947 1.97056 8.80288C2.12512 9.44806 2.25391 10.0994 2.38914 10.7508C2.62741 11.8737 2.85925 13.0027 3.10396 14.1256C3.42594 15.5834 4.41122 16.3527 5.9632 16.3589C7.07084 16.3651 8.17203 16.3527 9.27967 16.3651C9.93008 16.3713 10.2971 16.6566 10.4002 17.2025C10.5032 17.7919 10.0846 18.3378 9.46642 18.344C8.03036 18.3564 6.5943 18.3936 5.15823 18.3316C3.39374 18.2572 1.75161 16.8551 1.29439 15.0809C0.99816 13.9208 0.779209 12.7422 0.521619 11.5759C0.354186 10.8004 0.173873 10.0312 0 9.25575C0 9.08825 0 8.92075 0 8.75326Z" fill="#E5E5E5"/>
<path d="M4.53991 0C5.04865 0.105461 5.51875 0.266754 5.92445 0.601748C6.76806 1.29655 7.02565 2.56829 6.49759 3.51123C5.92445 4.54103 4.72022 5.04972 3.61902 4.73334C2.52427 4.41696 1.86741 3.65392 1.7837 2.50625C1.7193 1.62534 2.20872 0.694802 3.2262 0.235737C3.45803 0.130275 3.71562 0.0806467 3.96677 0C4.15352 0 4.34671 0 4.53991 0Z" fill="#E5E5E5"/>
<path d="M11.3469 15.875C11.1924 15.875 11.0829 15.875 10.9799 15.875C9.33128 15.875 7.68271 15.8812 6.02769 15.875C4.7655 15.8688 3.91546 15.1988 3.67075 14.0077C3.24572 11.9853 2.82714 9.96296 2.40212 7.94058C1.97065 5.8872 3.88326 4.89462 5.25492 5.32267C6.13073 5.59563 6.58151 6.22839 6.76182 7.05347C7.12245 8.70983 7.46375 10.3662 7.79862 12.0225C7.85658 12.3203 7.95317 12.432 8.28804 12.4258C9.62751 12.4134 10.967 12.4134 12.3064 12.4568C13.2144 12.4816 13.9164 13.1888 13.9808 14.0635C13.9937 14.2124 14.0001 14.3613 14.0001 14.5102C14.0001 16.8117 14.0001 19.1071 14.0001 21.4086C14.0001 21.6133 14.0001 21.8242 13.955 22.0227C13.8133 22.6493 13.2466 23.0401 12.5833 22.9967C11.9329 22.9533 11.4242 22.4756 11.3598 21.8428C11.3469 21.6939 11.3469 21.5451 11.3469 21.3962C11.3469 19.6778 11.3469 17.9532 11.3469 16.2348C11.3469 16.1293 11.3469 16.0177 11.3469 15.875Z" fill="#E5E5E5"/>
</svg>
