<svg width="316" height="48" viewBox="0 0 316 48" fill="none" xmlns="http://www.w3.org/2000/svg">
<path d="M24 3.23607L28.4373 16.8926L28.6618 17.5836H29.3883H43.7477L32.1307 26.0238L31.5429 26.4508L31.7675 27.1418L36.2047 40.7984L24.5878 32.3582L24 31.9311L23.4122 32.3582L11.7953 40.7984L16.2325 27.1418L16.4571 26.4508L15.8693 26.0238L4.25233 17.5836H18.6117H19.3382L19.5627 16.8926L24 3.23607Z" stroke="white" stroke-width="2"/>
<path d="M91 3.23607L95.4373 16.8926L95.6618 17.5836H96.3883H110.748L99.1307 26.0238L98.5429 26.4508L98.7675 27.1418L103.205 40.7984L91.5878 32.3582L91 31.9311L90.4122 32.3582L78.7953 40.7984L83.2325 27.1418L83.4571 26.4508L82.8693 26.0238L71.2523 17.5836H85.6117H86.3382L86.5627 16.8926L91 3.23607Z" stroke="white" stroke-width="2"/>
<path d="M158 3.23607L162.437 16.8926L162.662 17.5836H163.388H177.748L166.131 26.0238L165.543 26.4508L165.767 27.1418L170.205 40.7984L158.588 32.3582L158 31.9311L157.412 32.3582L145.795 40.7984L150.233 27.1418L150.457 26.4508L149.869 26.0238L138.252 17.5836H152.612H153.338L153.563 16.8926L158 3.23607Z" stroke="white" stroke-width="2"/>
<path d="M225 3.23607L229.437 16.8926L229.662 17.5836H230.388H244.748L233.131 26.0238L232.543 26.4508L232.767 27.1418L237.205 40.7984L225.588 32.3582L225 31.9311L224.412 32.3582L212.795 40.7984L217.233 27.1418L217.457 26.4508L216.869 26.0238L205.252 17.5836H219.612H220.338L220.563 16.8926L225 3.23607Z" stroke="white" stroke-width="2"/>
<path d="M292 3.23607L296.437 16.8926L296.662 17.5836H297.388H311.748L300.131 26.0238L299.543 26.4508L299.767 27.1418L304.205 40.7984L292.588 32.3582L292 31.9311L291.412 32.3582L279.795 40.7984L284.233 27.1418L284.457 26.4508L283.869 26.0238L272.252 17.5836H286.612H287.338L287.563 16.8926L292 3.23607Z" stroke="white" stroke-width="2"/>
</svg>
