<svg width="30" height="30" viewBox="0 0 30 30" fill="none" xmlns="http://www.w3.org/2000/svg">
<path d="M15.1454 29.9951C7.11437 30.2063 0.215587 23.5269 0.00493763 15.3691C-0.205712 7.13207 6.35076 0.188668 14.4871 0.00386308C22.9131 -0.180942 29.8119 6.28724 29.9962 14.6035C30.1805 22.9989 23.6241 29.8103 15.1454 29.9951ZM27.4421 15.0259C27.4684 8.1881 21.9389 2.59114 15.0664 2.53834C8.29927 2.45913 2.61173 8.0825 2.5854 14.8939C2.53274 21.7845 8.16762 27.4607 14.9874 27.4607C21.8072 27.4607 27.4157 21.8373 27.4421 15.0259Z" fill="#FFA800"/>
<path d="M15.3296 14.3922C17.3571 13.4946 19.1476 12.6762 20.9381 11.8842C21.2278 11.7521 21.5174 11.5145 21.8071 11.5409C22.2284 11.5673 22.6233 11.805 23.0446 11.937C22.8603 12.333 22.8077 12.9138 22.4917 13.0722C21.4648 13.6794 20.3589 14.1546 19.3056 14.6562C17.989 15.2899 16.6725 15.9499 15.3559 16.5571C14.171 17.1115 13.5917 16.7683 13.5654 15.5011C13.5391 12.6762 13.5127 9.85129 13.5917 7.02641C13.5917 6.6304 14.1447 6.23439 14.4343 5.83838C14.7503 6.23439 15.3033 6.604 15.3033 7.00001C15.3822 9.37608 15.3296 11.7521 15.3296 14.3922Z" fill="#FFA800"/>
</svg>
