<svg width="24" height="19" viewBox="0 0 24 19" fill="none" xmlns="http://www.w3.org/2000/svg">
<path d="M24 5.05721C23.7201 5.32164 23.4402 5.58607 23.1683 5.85852C22.8964 6.13096 22.6405 6.41944 22.3525 6.73195C19.4335 3.90332 16.0027 2.41289 11.988 2.41289C7.98934 2.41289 4.57448 3.90332 1.73542 6.65182C1.16761 6.0909 0.623792 5.54601 0 4.92099C0.863712 4.24789 1.70343 3.48664 2.63912 2.86162C9.3009 -1.56161 17.89 -0.792353 23.6961 4.72066C23.7921 4.8088 23.896 4.88893 24 4.96906C24 5.00112 24 5.02516 24 5.05721Z" fill="#E5E5E5"/>
<path d="M11.6041 19C11.5001 18.9519 11.3961 18.8958 11.2842 18.8477C10.4365 18.4872 9.96461 17.5977 10.1406 16.6922C10.3165 15.7948 11.1082 15.1457 12.0279 15.1457C12.9396 15.1537 13.7314 15.8108 13.8993 16.7082C14.0672 17.6057 13.5794 18.4952 12.7237 18.8477C12.6117 18.8958 12.5078 18.9439 12.3958 18.992C12.1319 19 11.868 19 11.6041 19Z" fill="#E5E5E5"/>
<path d="M5.11028 10.0413C4.54247 9.4804 3.99865 8.94352 3.45483 8.39863C7.58946 3.9113 15.6108 3.31833 20.5371 8.35055C19.9853 8.89545 19.4255 9.44034 18.8577 10.0013C16.9863 8.20632 14.6911 7.19667 11.988 7.20468C9.29289 7.2127 7.00565 8.21433 5.11028 10.0413Z" fill="#E5E5E5"/>
<path d="M17.2023 11.7722C16.6344 12.3331 16.0906 12.878 15.5468 13.4148C13.4115 11.3955 10.3325 11.6119 8.48516 13.4068C7.94134 12.8619 7.39752 12.3251 6.8457 11.7802C9.03697 9.20797 14.0673 8.55891 17.2023 11.7722Z" fill="#E5E5E5"/>
</svg>
