<svg id="svg" version="1.1" xmlns="http://www.w3.org/2000/svg" xmlns:xlink="http://www.w3.org/1999/xlink" width="400" height="63.176265270506114" viewBox="0, 0, 400,63.176265270506114"><g id="svgg"><path id="path0" d="M7.141 10.250 C 7.108 10.662,7.108 11.338,7.141 11.750 L 7.200 12.500 10.517 12.500 L 13.833 12.500 13.833 11.000 L 13.833 9.500 10.517 9.500 L 7.200 9.500 7.141 10.250 M17.553 10.149 C 17.502 10.342,17.395 10.500,17.314 10.500 C 17.233 10.500,17.167 10.575,17.167 10.667 C 17.167 10.775,19.861 10.833,24.917 10.833 C 32.365 10.833,32.667 10.821,32.667 10.523 C 32.667 10.227,32.351 10.207,25.958 10.101 C 22.269 10.040,18.889 9.947,18.447 9.894 C 17.730 9.808,17.635 9.835,17.553 10.149 M12.967 10.200 C 13.225 10.458,13.225 11.375,12.967 11.633 C 12.680 11.920,8.104 11.912,7.874 11.625 C 7.691 11.396,7.706 10.508,7.898 10.197 C 8.069 9.920,12.689 9.922,12.967 10.200 M56.583 10.930 C 56.474 10.976,56.432 15.839,56.460 25.167 L 56.504 39.333 57.169 39.333 L 57.833 39.333 57.839 26.042 C 57.843 15.254,57.886 12.695,58.065 12.458 C 58.348 12.086,95.096 11.996,95.467 12.367 C 95.619 12.519,95.667 15.763,95.667 25.950 L 95.667 39.333 96.333 39.333 L 97.000 39.333 97.000 25.950 C 97.000 15.763,97.048 12.519,97.200 12.367 C 97.353 12.214,101.744 12.167,115.950 12.167 L 134.500 12.167 134.500 25.750 L 134.500 39.333 135.083 39.333 L 135.667 39.333 135.667 25.988 C 135.667 14.626,135.702 12.607,135.905 12.404 C 136.110 12.199,138.774 12.171,154.697 12.208 L 173.250 12.250 173.293 25.792 L 173.335 39.333 174.000 39.333 L 174.665 39.333 174.707 25.792 L 174.750 12.250 193.375 12.208 L 212.000 12.165 212.000 25.749 L 212.000 39.333 212.750 39.333 L 213.500 39.333 213.500 25.988 C 213.500 14.626,213.535 12.607,213.739 12.404 C 213.944 12.199,216.607 12.171,232.530 12.208 L 251.083 12.250 251.126 25.792 L 251.169 39.333 251.667 39.333 L 252.165 39.333 252.207 25.792 L 252.250 12.250 270.814 12.208 C 288.346 12.168,289.391 12.181,289.601 12.458 C 289.781 12.695,289.824 15.238,289.828 26.042 L 289.833 39.333 290.417 39.333 L 291.000 39.333 291.000 25.988 C 291.000 14.644,291.036 12.607,291.238 12.405 C 291.563 12.080,328.309 12.043,328.633 12.367 C 328.786 12.519,328.833 15.763,328.833 25.950 L 328.833 39.333 329.416 39.333 L 329.998 39.333 330.041 25.792 L 330.083 12.250 348.708 12.208 L 367.333 12.165 367.333 25.749 L 367.333 39.333 368.083 39.333 L 368.833 39.333 368.833 25.083 L 368.833 10.833 212.792 10.846 C 126.969 10.854,56.675 10.891,56.583 10.930 M375.167 14.417 C 375.004 14.612,375.003 14.719,375.161 14.909 C 375.371 15.163,375.267 15.500,374.978 15.500 C 374.546 15.500,374.333 16.012,374.333 17.053 C 374.333 17.976,374.375 18.126,374.625 18.106 C 374.878 18.086,374.923 18.270,374.964 19.508 L 375.012 20.932 375.589 20.864 L 376.167 20.797 376.167 19.466 C 376.167 18.276,376.202 18.126,376.500 18.048 C 377.128 17.884,376.982 15.980,376.318 15.687 C 375.892 15.498,375.817 15.384,375.884 15.031 C 376.036 14.236,375.616 13.875,375.167 14.417 M380.033 14.367 C 379.923 14.477,379.833 14.749,379.833 14.972 C 379.833 15.195,379.694 15.499,379.523 15.647 C 379.352 15.795,379.168 16.179,379.114 16.500 C 379.060 16.821,378.966 17.327,378.906 17.625 C 378.834 17.978,378.860 18.167,378.981 18.167 C 379.083 18.167,379.167 18.384,379.167 18.649 C 379.167 18.924,379.274 19.172,379.417 19.227 C 379.586 19.292,379.667 19.557,379.667 20.050 C 379.667 20.937,379.679 20.951,380.412 20.866 C 380.993 20.798,381.000 20.788,381.000 20.000 C 381.000 19.430,381.075 19.174,381.261 19.102 C 381.404 19.047,381.475 18.928,381.420 18.838 C 381.364 18.748,381.412 18.503,381.526 18.295 C 381.852 17.704,381.541 16.217,380.953 15.554 C 380.776 15.355,380.682 15.110,380.743 15.011 C 381.061 14.497,380.454 13.946,380.033 14.367 M21.673 17.575 C 21.425 17.874,21.601 18.500,21.933 18.500 C 22.255 18.500,22.513 17.814,22.294 17.542 C 22.075 17.270,21.920 17.279,21.673 17.575 M26.520 17.546 C 26.288 17.778,26.273 18.500,26.500 18.500 C 26.864 18.500,26.639 18.797,26.208 18.885 C 25.636 19.001,25.014 20.999,25.440 21.353 C 25.565 21.456,25.667 21.687,25.667 21.866 C 25.667 22.044,25.779 22.303,25.917 22.440 C 26.054 22.578,26.167 22.977,26.167 23.326 C 26.167 23.904,26.212 23.969,26.663 24.035 C 27.315 24.131,27.500 23.915,27.500 23.060 C 27.500 22.671,27.575 22.307,27.667 22.250 C 27.758 22.193,27.833 21.964,27.833 21.740 C 27.833 21.516,27.908 21.333,28.000 21.333 C 28.092 21.333,28.167 21.075,28.167 20.760 C 28.167 20.444,28.092 20.140,28.000 20.083 C 27.908 20.027,27.833 19.758,27.833 19.486 C 27.833 19.070,27.754 18.976,27.333 18.892 C 26.872 18.799,26.617 18.500,27.000 18.500 C 27.255 18.500,27.198 17.548,26.937 17.448 C 26.811 17.399,26.623 17.444,26.520 17.546 M20.875 19.019 C 20.524 19.380,20.596 21.360,20.958 21.299 C 21.212 21.256,21.261 21.435,21.333 22.659 L 21.417 24.068 21.917 24.068 C 22.416 24.068,22.417 24.067,22.459 22.992 C 22.519 21.486,22.614 21.167,23.003 21.167 C 23.366 21.167,23.496 19.681,23.177 19.178 C 22.972 18.853,21.158 18.728,20.875 19.019 M46.470 21.085 C 46.423 21.132,45.836 21.226,45.164 21.294 C 42.902 21.522,43.506 21.833,46.210 21.833 C 48.607 21.833,49.167 21.697,49.167 21.112 C 49.167 20.983,46.598 20.957,46.470 21.085 M43.833 22.750 C 43.833 22.962,44.234 23.000,46.437 23.000 C 48.733 23.000,49.016 22.970,48.833 22.750 C 48.667 22.549,48.156 22.500,46.230 22.500 C 44.211 22.500,43.833 22.539,43.833 22.750 M44.054 23.770 C 43.728 23.908,44.139 24.795,44.742 25.255 C 45.859 26.107,47.885 25.437,48.034 24.167 L 48.083 23.750 46.167 23.719 C 45.112 23.702,44.162 23.725,44.054 23.770 M44.167 25.958 C 42.771 26.357,41.553 27.697,41.693 28.677 C 41.775 29.244,42.457 29.378,45.667 29.457 C 49.394 29.549,50.806 29.216,50.345 28.355 C 50.247 28.172,50.167 27.897,50.167 27.744 C 50.167 27.447,49.142 26.333,48.869 26.333 C 48.779 26.333,48.495 26.225,48.239 26.092 C 47.685 25.804,47.573 25.853,47.423 26.451 C 46.999 28.140,46.333 28.724,46.333 27.407 C 46.333 26.434,45.840 26.323,45.822 27.292 C 45.793 28.800,45.275 28.512,44.667 26.652 C 44.492 26.117,44.341 25.909,44.167 25.958 M382.667 30.583 C 382.667 34.722,382.675 34.833,383.000 34.833 C 383.325 34.833,383.333 34.722,383.333 30.583 C 383.333 26.444,383.325 26.333,383.000 26.333 C 382.675 26.333,382.667 26.444,382.667 30.583 M0.000 34.756 C 0.000 42.793,0.002 42.844,0.333 42.667 C 0.858 42.386,0.858 26.667,0.333 26.667 C 0.005 26.667,0.000 26.778,0.000 34.756 M16.833 33.500 L 16.833 40.333 17.208 40.333 L 17.583 40.333 17.583 33.500 L 17.583 26.667 17.208 26.667 L 16.833 26.667 16.833 33.500 M46.236 28.948 C 46.010 29.113,45.902 29.124,45.857 28.986 C 45.779 28.753,46.172 28.484,46.392 28.620 C 46.479 28.674,46.409 28.821,46.236 28.948 M390.163 33.208 C 386.909 34.854,388.138 39.711,391.816 39.741 C 393.282 39.753,395.000 38.777,395.000 37.932 C 395.000 37.797,395.075 37.640,395.167 37.583 C 395.258 37.527,395.333 36.922,395.333 36.240 C 395.333 35.524,395.263 35.000,395.167 35.000 C 395.075 35.000,395.000 34.886,395.000 34.746 C 395.000 33.306,391.911 32.324,390.163 33.208 M392.545 33.274 C 393.182 33.379,394.201 34.204,394.625 34.959 C 394.873 35.400,394.908 37.500,394.667 37.500 C 394.575 37.500,394.500 37.608,394.500 37.740 C 394.500 38.171,394.240 38.156,393.698 37.694 C 392.954 37.058,392.993 36.554,393.779 36.651 C 394.051 36.685,394.206 36.386,394.096 36.040 C 394.022 35.807,393.773 35.741,392.825 35.702 C 391.674 35.656,391.628 35.637,390.895 34.904 C 389.680 33.689,390.450 32.928,392.545 33.274 M391.651 34.375 C 391.743 34.622,391.905 34.733,392.125 34.701 C 392.309 34.675,392.503 34.768,392.558 34.910 C 392.672 35.208,393.209 35.245,393.691 34.987 C 394.192 34.719,393.632 34.346,392.718 34.339 C 392.334 34.336,391.973 34.258,391.917 34.167 C 391.715 33.841,391.511 34.001,391.651 34.375 M389.894 34.845 C 390.490 35.314,390.464 35.667,389.833 35.667 C 389.389 35.667,389.333 35.722,389.333 36.167 L 389.333 36.667 390.515 36.667 L 391.696 36.667 392.619 37.553 C 393.893 38.778,393.641 39.358,391.833 39.358 C 389.632 39.358,388.161 37.251,388.939 35.214 C 389.252 34.395,389.299 34.377,389.894 34.845 M56.583 49.698 C 56.539 49.818,56.484 52.485,56.460 55.625 L 56.417 61.333 212.667 61.333 L 368.917 61.333 368.871 55.417 L 368.825 49.500 368.082 49.500 L 367.338 49.500 367.294 54.542 L 367.250 59.583 348.949 59.626 C 336.523 59.655,330.544 59.613,330.324 59.495 C 330.014 59.329,330.000 59.102,330.000 54.400 L 330.000 49.479 329.458 49.531 L 328.917 49.583 328.833 54.417 C 328.787 57.075,328.689 59.344,328.615 59.458 C 328.498 59.639,291.450 59.804,291.298 59.625 C 291.278 59.602,291.222 57.333,291.173 54.583 L 291.083 49.583 290.520 49.530 C 289.591 49.441,289.590 49.446,289.500 54.716 L 289.417 59.583 271.115 59.626 C 258.690 59.655,252.710 59.613,252.490 59.495 C 252.181 59.329,252.167 59.103,252.167 54.411 L 252.167 49.500 251.667 49.500 L 251.167 49.500 251.167 54.321 C 251.167 58.482,251.131 59.179,250.905 59.405 C 250.670 59.640,248.732 59.667,232.071 59.667 L 213.500 59.667 213.500 54.583 L 213.500 49.500 212.750 49.500 L 212.000 49.500 212.000 54.383 C 212.000 57.959,211.946 59.320,211.800 59.467 C 211.403 59.864,175.053 59.744,174.839 59.344 C 174.732 59.144,174.667 57.224,174.667 54.261 L 174.667 49.500 174.000 49.500 L 173.333 49.500 173.333 54.239 C 173.333 56.921,173.263 59.164,173.171 59.407 L 173.008 59.835 154.379 59.792 L 135.750 59.750 135.706 54.625 L 135.662 49.500 135.081 49.500 L 134.500 49.500 134.500 54.411 C 134.500 59.095,134.485 59.330,134.178 59.494 C 133.902 59.642,97.422 59.771,97.298 59.625 C 97.278 59.602,97.222 57.333,97.173 54.583 L 97.083 49.583 96.691 49.528 C 96.476 49.497,96.121 49.517,95.902 49.572 L 95.505 49.672 95.461 54.628 L 95.417 59.583 76.792 59.626 C 66.548 59.649,58.151 59.649,58.131 59.626 C 58.112 59.602,58.055 57.333,58.006 54.583 L 57.917 49.583 57.290 49.532 C 56.886 49.498,56.635 49.557,56.583 49.698 M21.668 52.081 C 21.354 52.461,21.586 52.803,22.241 52.926 C 22.671 53.007,22.833 53.123,22.833 53.352 C 22.833 53.774,23.105 53.754,23.218 53.323 C 23.294 53.032,23.417 52.987,24.029 53.031 L 24.750 53.083 24.799 54.474 C 24.861 56.265,24.828 56.300,23.074 56.292 C 21.480 56.284,21.244 56.388,21.810 56.848 C 22.347 57.283,25.612 57.320,26.256 56.897 C 26.790 56.547,26.783 56.482,25.806 52.458 L 25.654 51.833 23.764 51.833 C 22.295 51.833,21.828 51.888,21.668 52.081 M376.083 53.833 C 376.017 54.043,375.831 54.167,375.582 54.167 C 375.106 54.167,374.867 54.480,375.187 54.683 C 375.503 54.883,378.858 54.867,379.167 54.664 C 379.488 54.453,379.125 54.173,378.526 54.169 C 378.277 54.168,378.104 54.046,378.048 53.833 C 377.975 53.553,377.821 53.500,377.075 53.500 C 376.336 53.500,376.172 53.555,376.083 53.833 M377.750 53.917 C 377.750 54.008,377.469 54.107,377.125 54.135 C 376.639 54.175,376.500 54.127,376.500 53.917 C 376.500 53.706,376.639 53.658,377.125 53.698 C 377.469 53.727,377.750 53.825,377.750 53.917 M22.167 55.066 C 22.167 55.867,23.152 56.160,23.724 55.529 C 24.322 54.867,24.094 54.500,23.083 54.500 L 22.167 54.500 22.167 55.066 M375.083 55.453 C 375.151 55.616,375.244 56.478,375.292 57.367 C 375.402 59.446,375.571 59.667,377.058 59.667 C 378.634 59.667,378.935 59.180,379.018 56.500 L 379.057 55.250 377.008 55.203 C 375.099 55.159,374.969 55.176,375.083 55.453 M25.833 55.573 C 25.833 55.706,25.764 55.857,25.678 55.910 C 25.480 56.032,25.281 55.720,25.417 55.500 C 25.570 55.252,25.833 55.298,25.833 55.573 M376.333 56.893 C 376.333 57.557,376.411 58.177,376.505 58.272 C 376.696 58.463,376.553 59.000,376.311 59.000 C 375.927 59.000,375.594 55.962,375.940 55.616 C 376.203 55.353,376.333 55.777,376.333 56.893 M377.417 57.333 C 377.417 58.704,377.378 58.919,377.125 58.968 C 376.863 59.019,376.833 58.854,376.833 57.333 C 376.833 55.812,376.863 55.648,377.125 55.698 C 377.378 55.747,377.417 55.962,377.417 57.333 M378.464 56.346 C 378.553 57.406,378.275 58.741,377.951 58.803 C 377.671 58.857,377.656 56.737,377.931 55.861 C 378.060 55.448,378.416 55.772,378.464 56.346 M7.142 60.542 C 7.110 60.931,7.106 61.569,7.135 61.958 L 7.186 62.667 10.510 62.667 L 13.833 62.667 13.833 61.250 L 13.833 59.833 10.517 59.833 L 7.200 59.833 7.142 60.542 M13.179 61.040 C 13.345 62.064,13.099 62.167,10.471 62.167 C 7.983 62.167,7.646 62.039,7.750 61.135 C 7.843 60.332,7.879 60.322,10.551 60.371 L 13.078 60.417 13.179 61.040 " stroke="none" fill="#9b9b9b" fill-rule="evenodd"></path><path id="path1" d="M0.000 7.333 C 0.000 12.111,0.058 14.667,0.167 14.667 C 0.258 14.667,0.334 14.535,0.335 14.375 C 0.344 12.613,2.900 10.833,5.421 10.833 L 6.814 10.833 6.865 10.125 L 6.917 9.417 10.449 9.372 L 13.981 9.327 14.032 10.038 L 14.083 10.750 15.520 10.798 L 16.956 10.846 17.236 10.256 C 17.573 9.545,16.800 9.580,26.059 9.863 L 32.700 10.067 32.847 10.452 L 32.993 10.838 44.622 10.750 C 101.079 10.324,394.963 10.529,396.083 10.994 C 396.267 11.071,396.662 11.225,396.961 11.338 C 397.756 11.637,399.069 13.152,399.394 14.145 C 399.750 15.233,399.818 56.779,399.465 57.822 C 398.953 59.336,397.549 60.712,396.044 61.173 C 395.350 61.386,371.271 61.419,204.667 61.434 L 14.083 61.451 14.032 62.146 L 13.981 62.840 10.449 62.795 L 6.917 62.750 6.866 62.057 L 6.816 61.365 5.283 61.302 C 2.725 61.197,0.333 59.484,0.333 57.757 C 0.333 57.615,0.258 57.500,0.167 57.500 C 0.062 57.500,0.000 58.556,0.000 60.333 L 0.000 63.167 200.000 63.167 L 400.000 63.167 400.000 31.583 L 400.000 0.000 200.000 0.000 L 0.000 0.000 0.000 7.333 M8.167 10.667 C 8.167 10.770,9.056 10.833,10.500 10.833 C 11.944 10.833,12.833 10.770,12.833 10.667 C 12.833 10.563,11.944 10.500,10.500 10.500 C 9.056 10.500,8.167 10.563,8.167 10.667 M3.198 11.531 C 2.803 11.723,2.181 12.185,1.814 12.559 C 1.196 13.189,1.038 13.454,0.523 14.716 C 0.138 15.662,0.268 26.348,0.667 26.452 C 0.994 26.537,1.000 26.679,1.000 34.702 C 1.000 42.724,0.994 42.866,0.667 42.952 C 0.289 43.050,0.126 57.019,0.500 57.250 C 0.592 57.307,0.667 57.506,0.667 57.692 C 0.667 59.260,3.257 61.000,5.590 61.000 L 6.833 61.000 6.836 60.458 C 6.841 59.478,6.798 59.489,10.512 59.538 L 13.917 59.583 13.968 60.292 L 14.019 61.000 15.560 61.000 C 17.705 61.000,17.500 62.078,17.500 50.804 L 17.500 41.008 17.083 40.735 L 16.667 40.462 16.667 33.499 L 16.667 26.536 17.085 26.431 L 17.503 26.326 17.460 18.788 L 17.417 11.250 15.718 11.203 L 14.020 11.155 13.968 11.869 L 13.917 12.583 10.512 12.629 C 6.798 12.678,6.841 12.688,6.836 11.708 L 6.833 11.167 5.375 11.175 C 4.249 11.181,3.753 11.263,3.198 11.531 M8.167 11.333 C 8.167 11.437,9.056 11.500,10.500 11.500 C 11.944 11.500,12.833 11.437,12.833 11.333 C 12.833 11.230,11.944 11.167,10.500 11.167 C 9.056 11.167,8.167 11.230,8.167 11.333 M17.778 11.278 C 17.556 11.500,17.650 26.248,17.875 26.537 C 17.990 26.685,18.683 27.137,19.417 27.542 C 20.150 27.947,21.050 28.451,21.417 28.663 C 21.783 28.874,22.421 29.236,22.833 29.466 C 23.246 29.696,24.408 30.350,25.417 30.918 C 26.425 31.487,27.587 32.140,28.000 32.369 C 28.412 32.598,29.050 32.959,29.417 33.171 C 31.038 34.107,31.567 34.328,31.699 34.120 C 31.850 33.883,31.878 12.099,31.728 11.542 L 31.628 11.167 24.758 11.167 C 20.980 11.167,17.839 11.217,17.778 11.278 M32.109 11.525 C 31.961 12.079,31.979 34.377,32.128 34.600 C 32.195 34.700,32.587 34.971,33.000 35.201 C 33.778 35.635,34.555 36.077,35.625 36.694 C 35.969 36.892,36.786 37.342,37.441 37.695 L 38.633 38.336 47.358 38.293 L 56.083 38.250 56.126 24.926 C 56.149 17.598,56.112 11.550,56.043 11.486 C 55.973 11.423,50.584 11.318,44.065 11.253 L 32.214 11.134 32.109 11.525 M369.278 11.278 C 369.112 11.443,369.148 37.046,369.315 37.309 C 369.447 37.518,373.264 34.798,375.125 33.169 L 375.667 32.695 375.667 29.264 L 375.667 25.833 379.011 25.833 C 383.539 25.833,383.000 26.848,383.000 18.327 L 383.000 11.167 376.194 11.167 C 372.451 11.167,369.339 11.217,369.278 11.278 M383.615 11.292 C 383.576 11.360,383.536 22.573,383.526 36.208 L 383.509 61.000 389.561 61.000 L 395.613 61.000 396.638 60.488 C 397.736 59.939,398.463 59.188,398.999 58.049 C 399.328 57.348,399.333 57.014,399.333 36.090 L 399.333 14.843 398.943 13.961 C 398.520 13.004,397.022 11.500,396.492 11.500 C 396.324 11.500,396.140 11.425,396.083 11.333 C 395.962 11.137,383.727 11.096,383.615 11.292 M58.268 12.596 C 58.212 12.742,58.167 18.896,58.167 26.272 L 58.167 39.683 57.208 39.633 C 56.301 39.586,56.247 39.559,56.197 39.125 L 56.145 38.667 47.313 38.667 L 38.482 38.667 37.449 38.125 C 36.881 37.827,36.392 37.527,36.361 37.458 C 36.331 37.390,36.246 37.333,36.174 37.333 C 36.102 37.333,35.302 36.912,34.396 36.396 C 33.491 35.881,32.375 35.254,31.917 35.002 C 31.133 34.572,30.730 34.345,29.208 33.476 C 28.865 33.280,28.246 32.933,27.833 32.704 C 27.421 32.476,27.008 32.235,26.917 32.168 C 26.825 32.102,26.337 31.823,25.833 31.549 C 25.329 31.274,24.617 30.877,24.250 30.668 C 23.883 30.458,23.246 30.099,22.833 29.870 C 22.421 29.641,21.596 29.172,21.000 28.828 C 19.372 27.886,18.044 27.167,17.933 27.167 C 17.802 27.167,17.804 39.895,17.934 40.236 C 17.990 40.381,18.098 40.500,18.175 40.500 C 18.304 40.500,20.762 42.034,23.957 44.108 C 24.712 44.599,25.368 45.000,25.413 45.000 C 25.459 45.000,26.363 45.563,27.422 46.250 C 28.481 46.938,29.385 47.500,29.431 47.500 C 29.477 47.500,29.605 47.575,29.715 47.667 C 29.826 47.759,30.292 48.078,30.750 48.376 L 31.583 48.917 31.627 54.958 L 31.671 61.000 43.917 61.000 L 56.162 61.000 56.206 55.125 L 56.250 49.250 57.250 49.250 L 58.250 49.250 58.294 54.292 L 58.338 59.333 76.752 59.333 L 95.167 59.333 95.169 54.625 C 95.172 48.842,95.102 49.167,96.335 49.167 C 97.577 49.167,97.500 48.814,97.500 54.514 L 97.500 59.335 115.875 59.292 L 134.250 59.250 134.333 54.250 L 134.417 49.250 135.125 49.199 L 135.833 49.148 135.833 54.324 L 135.833 59.500 140.889 59.500 C 143.670 59.500,152.032 59.450,159.472 59.389 L 173.000 59.278 173.000 54.486 C 173.000 48.902,172.950 49.167,174.000 49.167 C 175.050 49.167,175.000 48.899,175.000 54.514 L 175.000 59.335 193.375 59.292 L 211.750 59.250 211.833 54.250 L 211.917 49.250 212.789 49.200 L 213.662 49.149 213.706 54.200 L 213.750 59.250 232.292 59.292 L 250.833 59.335 250.833 54.514 C 250.833 49.019,250.810 49.167,251.665 49.167 C 252.509 49.167,252.495 49.072,252.498 54.626 L 252.500 59.335 270.875 59.292 L 289.250 59.250 289.333 54.250 L 289.417 49.250 290.417 49.250 L 291.417 49.250 291.461 54.292 L 291.505 59.333 309.919 59.333 L 328.333 59.333 328.336 54.625 C 328.338 48.939,328.297 49.167,329.335 49.167 C 330.383 49.167,330.333 48.900,330.333 54.514 L 330.333 59.335 348.708 59.292 L 367.083 59.250 367.127 54.200 L 367.172 49.150 368.127 49.200 L 369.083 49.250 369.174 55.083 C 369.224 58.292,369.280 60.936,369.299 60.960 C 369.318 60.984,372.427 60.984,376.208 60.960 L 383.083 60.917 383.128 48.167 C 383.172 35.587,383.168 35.413,382.839 35.142 C 382.523 34.882,382.503 34.638,382.461 30.476 L 382.417 26.083 381.250 26.029 C 380.608 25.998,379.165 26.025,378.042 26.087 L 376.000 26.200 376.000 29.498 C 376.000 33.323,376.178 32.888,373.917 34.598 C 371.636 36.322,371.091 36.742,371.000 36.841 C 370.954 36.892,370.654 37.114,370.333 37.336 C 369.456 37.942,369.376 38.051,369.219 38.848 L 369.074 39.583 368.120 39.633 L 367.167 39.683 367.167 26.008 L 367.167 12.333 348.750 12.333 L 330.333 12.333 330.333 25.736 C 330.333 40.656,330.398 39.667,329.420 39.667 L 328.710 39.667 328.563 26.042 L 328.417 12.417 310.010 12.374 C 295.397 12.341,291.576 12.375,291.468 12.541 C 291.392 12.656,291.338 18.787,291.346 26.167 L 291.360 39.583 290.388 39.583 L 289.417 39.583 289.374 25.958 L 289.331 12.333 270.916 12.333 L 252.500 12.333 252.500 25.736 C 252.500 40.523,252.551 39.667,251.667 39.667 C 250.782 39.667,250.833 40.523,250.833 25.736 L 250.833 12.333 232.488 12.333 C 216.811 12.333,214.108 12.368,213.905 12.571 C 213.702 12.774,213.667 14.822,213.667 26.238 L 213.667 39.667 212.750 39.667 L 211.833 39.667 211.833 26.000 L 211.833 12.333 193.417 12.333 L 175.000 12.333 175.000 25.736 C 175.000 40.779,175.080 39.667,174.000 39.667 C 172.920 39.667,173.000 40.779,173.000 25.736 L 173.000 12.333 154.601 12.333 C 137.699 12.333,136.194 12.356,136.097 12.607 C 136.040 12.757,135.996 18.813,136.000 26.065 C 136.004 33.317,136.006 39.344,136.004 39.458 C 136.001 39.597,135.720 39.667,135.167 39.667 L 134.333 39.667 134.333 25.999 L 134.333 12.332 115.875 12.374 L 97.417 12.417 97.374 26.042 L 97.331 39.667 96.416 39.667 L 95.500 39.667 95.476 33.958 C 95.463 30.819,95.407 24.688,95.351 20.333 L 95.250 12.417 76.810 12.374 C 60.102 12.336,58.360 12.357,58.268 12.596 M376.077 14.160 C 376.270 14.373,376.338 14.625,376.273 14.884 C 376.195 15.193,376.266 15.330,376.593 15.505 C 377.136 15.796,377.171 18.459,376.632 18.369 C 376.384 18.328,376.340 18.512,376.298 19.786 L 376.250 21.250 375.500 21.250 L 374.750 21.250 374.700 20.012 C 374.658 18.947,374.594 18.721,374.242 18.395 C 373.605 17.804,373.652 16.396,374.333 15.667 C 374.608 15.372,374.833 14.977,374.833 14.787 C 374.833 13.995,375.585 13.616,376.077 14.160 M380.911 14.160 C 381.112 14.382,381.172 14.622,381.100 14.910 C 381.037 15.161,381.065 15.333,381.168 15.333 C 381.599 15.333,382.211 17.819,381.889 18.260 C 381.766 18.428,381.704 18.688,381.752 18.838 C 381.800 18.989,381.688 19.246,381.502 19.415 C 381.278 19.617,381.167 19.929,381.167 20.349 C 381.167 21.049,380.987 21.231,380.255 21.271 C 379.640 21.305,379.346 20.943,379.339 20.145 C 379.336 19.813,379.219 19.446,379.080 19.330 C 378.933 19.209,378.867 18.989,378.924 18.810 C 378.981 18.629,378.942 18.500,378.829 18.500 C 378.696 18.500,378.663 18.227,378.722 17.625 C 378.859 16.220,379.018 15.673,379.357 15.436 C 379.531 15.313,379.632 15.104,379.581 14.970 C 379.319 14.288,380.420 13.618,380.911 14.160 M378.365 15.958 C 378.448 19.095,378.299 21.250,378.000 21.250 C 377.787 21.250,377.743 20.716,377.705 17.625 C 377.662 14.120,377.671 14.000,377.987 14.000 C 378.290 14.000,378.317 14.142,378.365 15.958 M22.375 17.232 C 22.540 17.357,22.667 17.673,22.667 17.958 C 22.667 18.311,22.791 18.543,23.083 18.735 C 23.660 19.113,23.729 21.471,23.167 21.618 C 22.877 21.694,22.833 21.846,22.833 22.780 C 22.833 24.164,22.654 24.500,21.917 24.500 C 21.177 24.500,21.000 24.164,21.000 22.761 C 21.000 21.937,20.943 21.667,20.768 21.667 C 20.118 21.667,20.148 19.558,20.809 18.797 C 21.070 18.496,21.251 18.154,21.210 18.036 C 20.993 17.416,21.844 16.829,22.375 17.232 M27.298 17.379 C 27.522 17.617,27.622 17.886,27.566 18.099 C 27.514 18.299,27.585 18.530,27.738 18.657 C 27.882 18.776,28.000 19.000,28.000 19.154 C 28.000 19.308,28.071 19.505,28.159 19.592 C 28.543 19.977,28.335 22.288,27.892 22.550 C 27.758 22.629,27.667 22.975,27.667 23.405 C 27.667 24.236,27.452 24.479,26.750 24.439 C 26.009 24.397,25.833 24.217,25.833 23.502 C 25.833 23.147,25.721 22.745,25.583 22.607 C 25.446 22.470,25.333 22.206,25.333 22.022 C 25.333 21.837,25.258 21.640,25.167 21.583 C 24.800 21.357,25.262 19.071,25.758 18.660 C 25.891 18.550,26.000 18.304,26.000 18.115 C 26.000 17.293,26.794 16.843,27.298 17.379 M24.750 20.836 C 24.750 24.306,24.740 24.417,24.417 24.417 C 24.096 24.417,24.081 24.290,24.036 21.167 C 23.984 17.581,24.034 17.117,24.464 17.200 C 24.724 17.249,24.750 17.586,24.750 20.836 M49.463 20.917 C 49.488 21.100,49.310 21.464,49.066 21.725 L 48.622 22.200 49.061 22.607 C 49.625 23.130,49.614 23.282,49.000 23.417 C 48.725 23.477,48.500 23.631,48.500 23.759 C 48.500 23.887,48.331 24.342,48.125 24.772 C 47.826 25.394,47.796 25.568,47.979 25.630 C 48.734 25.888,49.892 26.644,50.078 27.000 C 50.909 28.598,50.875 29.099,49.917 29.431 C 49.550 29.558,48.796 29.663,48.242 29.664 C 47.687 29.666,47.151 29.749,47.050 29.850 C 46.868 30.032,46.651 30.021,43.750 29.686 C 41.548 29.432,41.500 29.408,41.500 28.590 C 41.500 27.330,42.552 26.078,43.891 25.742 C 44.424 25.608,44.440 25.464,43.986 24.851 C 43.634 24.374,43.403 21.760,43.674 21.322 C 43.844 21.046,44.946 20.844,46.417 20.818 C 47.150 20.805,47.975 20.735,48.250 20.664 C 49.020 20.463,49.411 20.545,49.463 20.917 M44.833 25.885 C 44.833 26.409,45.245 27.500,45.442 27.500 C 45.631 27.500,45.640 27.429,45.490 27.149 C 45.247 26.693,45.480 26.457,46.105 26.529 C 46.553 26.580,46.580 26.626,46.535 27.250 C 46.477 28.043,46.729 27.794,47.009 26.781 C 47.106 26.432,47.219 26.057,47.261 25.948 C 47.316 25.806,46.983 25.750,46.085 25.750 C 45.397 25.750,44.833 25.811,44.833 25.885 M393.226 32.729 C 397.098 34.347,395.956 40.167,391.766 40.167 C 389.841 40.167,388.013 38.281,388.004 36.286 C 387.992 33.672,390.839 31.732,393.226 32.729 M390.711 33.754 L 390.339 34.015 391.082 34.757 C 391.785 35.461,391.871 35.499,392.704 35.473 C 393.353 35.454,393.431 35.430,393.000 35.382 C 391.898 35.260,391.365 34.895,391.217 34.159 C 391.087 33.509,391.074 33.499,390.711 33.754 M391.667 33.640 C 391.667 33.800,392.796 34.169,393.269 34.163 C 393.543 34.160,393.530 34.117,393.167 33.833 C 392.754 33.510,391.667 33.370,391.667 33.640 M389.167 35.250 C 389.167 35.419,389.336 35.500,389.687 35.500 C 390.131 35.500,390.177 35.463,390.000 35.250 C 389.886 35.112,389.652 35.000,389.480 35.000 C 389.307 35.000,389.167 35.112,389.167 35.250 M388.833 36.250 C 388.833 36.387,388.908 36.500,389.000 36.500 C 389.092 36.500,389.167 36.387,389.167 36.250 C 389.167 36.112,389.092 36.000,389.000 36.000 C 388.908 36.000,388.833 36.112,388.833 36.250 M389.249 37.168 C 388.846 37.820,390.532 39.000,391.867 39.000 C 393.396 39.000,393.519 38.783,392.549 37.799 L 391.763 37.000 390.558 37.000 C 389.895 37.000,389.306 37.076,389.249 37.168 M393.500 37.095 C 393.500 37.533,394.250 37.790,394.399 37.403 C 394.550 37.010,394.540 37.000,394.000 37.000 C 393.725 37.000,393.500 37.043,393.500 37.095 M17.778 40.944 C 17.639 41.083,17.629 60.375,17.768 60.736 C 17.900 61.082,30.790 61.143,31.133 60.800 C 31.345 60.588,31.438 49.799,31.232 49.264 C 31.177 49.119,30.258 48.462,29.191 47.803 C 28.123 47.145,26.710 46.245,26.049 45.803 C 25.389 45.361,24.812 45.000,24.767 45.000 C 24.693 45.000,22.083 43.358,19.294 41.558 C 18.149 40.819,17.974 40.748,17.778 40.944 M25.667 51.715 C 25.969 51.867,26.098 52.083,26.137 52.504 C 26.166 52.823,26.372 53.736,26.595 54.533 C 27.090 56.305,27.093 56.463,26.638 56.948 C 26.107 57.512,22.120 57.542,21.522 56.985 C 21.062 56.556,21.134 56.267,21.721 56.197 C 21.966 56.168,22.166 56.131,22.165 56.114 C 22.164 56.097,22.056 55.732,21.926 55.303 C 21.675 54.474,21.756 54.267,22.384 54.143 C 22.549 54.110,22.680 54.027,22.675 53.958 C 22.671 53.890,22.667 53.683,22.667 53.500 C 22.667 53.245,22.556 53.167,22.192 53.167 C 21.194 53.167,20.878 51.861,21.816 51.610 C 22.451 51.440,25.273 51.517,25.667 51.715 M23.438 53.542 C 23.288 54.104,23.302 54.139,23.708 54.197 C 24.107 54.253,24.233 55.207,23.930 55.875 C 23.834 56.087,23.871 56.167,24.066 56.167 C 24.292 56.167,24.333 55.933,24.333 54.667 C 24.333 53.197,24.325 53.167,23.936 53.167 C 23.665 53.167,23.507 53.286,23.438 53.542 M378.248 53.625 C 378.360 53.881,378.555 54.000,378.865 54.000 C 379.476 54.000,379.630 54.352,379.470 55.383 C 379.395 55.860,379.286 56.907,379.227 57.709 C 379.083 59.684,378.808 60.000,377.242 60.000 C 375.609 60.000,375.233 59.684,375.113 58.210 C 375.062 57.591,374.949 56.483,374.860 55.750 C 374.684 54.287,374.779 54.000,375.437 54.000 C 375.672 54.000,375.833 53.902,375.833 53.758 C 375.833 53.070,377.953 52.953,378.248 53.625 M376.039 56.333 C 376.039 56.654,376.073 56.785,376.115 56.625 C 376.157 56.465,376.157 56.202,376.115 56.042 C 376.073 55.881,376.039 56.012,376.039 56.333 M377.058 57.333 C 377.058 58.112,377.087 58.431,377.122 58.042 C 377.157 57.652,377.157 57.015,377.122 56.625 C 377.087 56.235,377.058 56.554,377.058 57.333 M8.167 60.833 C 8.167 60.937,9.056 61.000,10.500 61.000 C 11.944 61.000,12.833 60.937,12.833 60.833 C 12.833 60.730,11.944 60.667,10.500 60.667 C 9.056 60.667,8.167 60.730,8.167 60.833 M8.083 61.500 C 8.016 61.608,8.832 61.667,10.407 61.667 C 11.913 61.667,12.833 61.603,12.833 61.500 C 12.833 61.397,11.948 61.333,10.510 61.333 C 9.141 61.333,8.144 61.402,8.083 61.500 " stroke="none" fill="#fbfbfb" fill-rule="evenodd"></path><path id="path2" d="M7.045 10.167 C 7.045 10.579,7.078 10.748,7.118 10.542 C 7.157 10.335,7.157 9.998,7.118 9.792 C 7.078 9.585,7.045 9.754,7.045 10.167 M20.583 10.002 C 22.336 10.134,26.938 10.210,26.819 10.105 C 26.781 10.072,24.988 10.006,22.833 9.960 C 20.445 9.909,19.567 9.925,20.583 10.002 M7.898 10.197 C 7.706 10.508,7.691 11.396,7.874 11.625 C 8.104 11.912,12.680 11.920,12.967 11.633 C 13.225 11.375,13.225 10.458,12.967 10.200 C 12.689 9.922,8.069 9.920,7.898 10.197 M12.917 10.917 L 12.917 11.583 10.458 11.629 L 8.000 11.676 8.000 11.032 C 8.000 10.140,7.960 10.153,10.574 10.204 L 12.917 10.250 12.917 10.917 M56.417 10.763 C 56.246 10.835,56.242 38.855,56.412 39.299 C 56.469 39.446,56.733 39.502,57.207 39.468 L 57.917 39.417 58.000 25.974 C 58.046 18.581,58.027 12.567,57.958 12.609 C 57.890 12.652,57.833 18.682,57.833 26.010 L 57.833 39.333 57.169 39.333 L 56.504 39.333 56.460 25.168 C 56.424 13.496,56.456 10.989,56.639 10.918 C 56.761 10.872,127.054 10.833,212.847 10.833 L 368.833 10.833 368.833 25.083 L 368.833 39.333 368.084 39.333 L 367.335 39.333 367.291 25.708 L 367.247 12.083 367.249 25.750 L 367.250 39.417 368.043 39.468 C 368.599 39.503,368.863 39.450,368.924 39.290 C 369.146 38.712,369.084 10.837,368.861 10.752 C 368.597 10.650,56.658 10.662,56.417 10.763 M20.375 10.958 C 22.094 10.985,24.906 10.985,26.625 10.958 C 28.344 10.931,26.938 10.909,23.500 10.909 C 20.063 10.909,18.656 10.931,20.375 10.958 M7.045 11.833 C 7.045 12.246,7.078 12.415,7.118 12.208 C 7.157 12.002,7.157 11.665,7.118 11.458 C 7.078 11.252,7.045 11.421,7.045 11.833 M289.333 12.292 C 289.333 12.395,289.408 12.527,289.500 12.583 C 289.609 12.651,289.667 17.338,289.667 26.102 L 289.667 39.518 290.423 39.467 L 291.180 39.417 291.215 25.958 C 291.234 18.556,291.194 12.500,291.125 12.500 C 291.056 12.500,291.000 18.537,291.000 25.917 L 291.000 39.333 290.417 39.333 L 289.833 39.333 289.828 26.042 C 289.823 14.619,289.788 12.705,289.578 12.426 C 289.443 12.249,289.333 12.188,289.333 12.292 M97.111 12.444 C 97.050 12.506,97.000 18.576,97.000 25.935 L 97.000 39.314 96.292 39.384 L 95.583 39.453 96.333 39.435 L 97.083 39.417 97.167 25.875 C 97.212 18.427,97.244 12.333,97.236 12.333 C 97.228 12.333,97.172 12.383,97.111 12.444 M173.207 25.875 L 173.167 39.500 174.000 39.500 L 174.833 39.500 174.793 25.875 L 174.752 12.250 174.708 25.792 L 174.665 39.333 174.000 39.333 L 173.335 39.333 173.292 25.792 L 173.248 12.250 173.207 25.875 M251.041 25.885 L 251.000 39.520 251.625 39.468 L 252.250 39.417 252.292 25.875 L 252.333 12.333 252.249 25.833 L 252.165 39.333 251.667 39.333 L 251.169 39.333 251.125 25.792 L 251.081 12.250 251.041 25.885 M328.667 18.883 L 328.750 25.417 328.794 19.010 C 328.818 15.487,328.780 12.547,328.710 12.477 C 328.640 12.407,328.621 15.290,328.667 18.883 M330.041 25.782 L 330.000 39.313 329.375 39.379 L 328.750 39.444 329.380 39.472 C 330.235 39.510,330.175 40.628,330.125 25.667 L 330.081 12.250 330.041 25.782 M135.667 25.907 L 135.667 39.313 135.082 39.382 L 134.497 39.452 135.124 39.434 L 135.750 39.417 135.833 25.958 C 135.879 18.556,135.860 12.500,135.792 12.500 C 135.723 12.500,135.667 18.533,135.667 25.907 M375.880 14.860 C 375.844 15.362,376.172 15.815,376.579 15.828 C 376.668 15.831,376.570 15.714,376.361 15.567 C 376.058 15.355,376.002 15.203,376.087 14.817 C 376.145 14.551,376.131 14.333,376.055 14.334 C 375.979 14.334,375.900 14.571,375.880 14.860 M377.833 17.583 C 377.833 19.639,377.895 20.833,378.000 20.833 C 378.105 20.833,378.167 19.639,378.167 17.583 C 378.167 15.528,378.105 14.333,378.000 14.333 C 377.895 14.333,377.833 15.528,377.833 17.583 M380.750 14.824 C 380.750 15.076,380.860 15.415,380.995 15.577 C 381.296 15.940,381.654 16.940,381.683 17.500 C 381.700 17.818,381.724 17.843,381.786 17.604 C 381.898 17.167,381.362 15.547,381.068 15.434 C 380.905 15.371,380.858 15.209,380.926 14.939 C 380.982 14.717,380.965 14.498,380.889 14.451 C 380.812 14.404,380.750 14.571,380.750 14.824 M374.364 15.703 C 373.997 16.069,374.109 18.183,374.500 18.285 C 374.798 18.363,374.833 18.512,374.833 19.676 C 374.833 21.130,374.848 21.152,375.667 20.978 L 376.250 20.854 375.631 20.893 L 375.012 20.932 374.964 19.508 C 374.923 18.270,374.878 18.086,374.625 18.106 C 374.259 18.136,374.179 15.916,374.542 15.787 C 374.656 15.746,374.707 15.666,374.656 15.609 C 374.604 15.552,374.472 15.594,374.364 15.703 M21.509 17.567 C 21.391 17.788,21.350 18.059,21.418 18.169 C 21.492 18.288,21.378 18.516,21.138 18.727 C 20.916 18.923,20.832 19.018,20.951 18.938 C 21.277 18.718,23.006 18.908,23.179 19.182 C 23.289 19.354,23.329 19.360,23.331 19.204 C 23.332 19.087,23.153 18.923,22.933 18.839 C 22.713 18.756,22.488 18.615,22.433 18.526 C 22.378 18.437,22.190 18.402,22.016 18.448 C 21.580 18.561,21.367 17.895,21.725 17.537 C 22.046 17.216,22.531 17.531,22.391 17.971 C 22.316 18.206,22.329 18.211,22.476 18.004 C 22.603 17.824,22.578 17.678,22.382 17.462 C 22.019 17.060,21.763 17.091,21.509 17.567 M26.442 17.471 C 26.291 17.639,26.167 17.959,26.167 18.181 C 26.167 18.406,26.018 18.679,25.833 18.795 C 25.618 18.929,25.509 19.164,25.525 19.460 L 25.550 19.917 25.620 19.452 C 25.674 19.095,25.804 18.964,26.178 18.889 C 26.631 18.799,26.878 18.500,26.500 18.500 C 26.273 18.500,26.288 17.778,26.520 17.546 C 26.623 17.444,26.811 17.399,26.937 17.448 C 27.224 17.558,27.241 18.446,26.958 18.547 C 26.674 18.648,26.822 18.764,27.417 18.904 C 27.876 19.012,27.891 19.003,27.599 18.786 C 27.392 18.632,27.313 18.428,27.372 18.202 C 27.561 17.480,26.903 16.962,26.442 17.471 M24.167 20.833 C 24.167 23.685,24.203 24.167,24.417 24.167 C 24.631 24.167,24.667 23.685,24.667 20.833 C 24.667 17.981,24.631 17.500,24.417 17.500 C 24.203 17.500,24.167 17.981,24.167 20.833 M381.208 19.110 C 381.082 19.161,381.010 19.467,381.027 19.889 C 381.053 20.565,381.055 20.568,381.124 20.001 C 381.162 19.680,381.272 19.324,381.367 19.209 C 381.552 18.987,381.537 18.978,381.208 19.110 M379.476 19.966 C 379.556 21.008,380.370 21.526,380.970 20.917 C 381.032 20.854,380.783 20.828,380.417 20.859 L 379.750 20.917 379.698 20.167 C 379.669 19.754,379.594 19.364,379.531 19.299 C 379.467 19.235,379.443 19.535,379.476 19.966 M20.552 20.250 C 20.553 20.800,20.584 21.005,20.621 20.705 C 20.658 20.406,20.657 19.956,20.619 19.705 C 20.581 19.455,20.551 19.700,20.552 20.250 M25.271 20.256 C 25.213 20.405,25.173 20.652,25.181 20.805 C 25.189 20.958,25.261 20.862,25.342 20.592 C 25.499 20.066,25.444 19.805,25.271 20.256 M48.250 20.821 C 47.789 20.931,47.812 20.946,48.542 21.013 C 49.031 21.058,49.313 21.021,49.278 20.918 C 49.207 20.703,48.879 20.672,48.250 20.821 M44.583 21.167 C 44.136 21.280,44.163 21.294,44.833 21.294 C 45.246 21.294,45.808 21.237,46.083 21.167 C 46.530 21.053,46.504 21.039,45.833 21.039 C 45.421 21.039,44.858 21.097,44.583 21.167 M20.825 21.342 C 20.623 21.470,20.630 21.495,20.868 21.497 C 21.104 21.500,21.162 21.704,21.210 22.708 L 21.267 23.917 21.300 22.635 C 21.334 21.318,21.246 21.076,20.825 21.342 M22.587 21.542 C 22.540 21.748,22.483 22.403,22.459 22.997 L 22.417 24.078 21.875 24.062 C 21.577 24.052,21.333 24.095,21.333 24.156 C 21.333 24.217,21.596 24.275,21.918 24.284 C 22.594 24.303,22.641 24.198,22.707 22.500 C 22.744 21.574,22.792 21.424,23.042 21.466 C 23.202 21.493,23.333 21.436,23.333 21.341 C 23.333 20.987,22.673 21.165,22.587 21.542 M25.167 21.313 C 25.167 21.416,25.242 21.500,25.333 21.500 C 25.425 21.500,25.500 21.678,25.500 21.896 C 25.500 22.114,25.613 22.386,25.750 22.500 C 25.887 22.614,26.001 22.980,26.003 23.312 C 26.006 24.097,26.238 24.495,26.526 24.207 C 26.691 24.042,26.676 24.000,26.450 24.000 C 26.231 24.000,26.167 23.850,26.167 23.345 C 26.167 22.985,26.054 22.578,25.917 22.440 C 25.779 22.303,25.667 22.044,25.667 21.866 C 25.667 21.687,25.554 21.447,25.417 21.333 C 25.244 21.190,25.167 21.184,25.167 21.313 M27.833 21.717 C 27.833 21.927,27.740 22.194,27.625 22.310 C 27.458 22.478,27.471 22.499,27.691 22.415 C 27.970 22.309,28.223 21.333,27.971 21.333 C 27.895 21.333,27.833 21.506,27.833 21.717 M43.698 21.625 C 43.797 22.142,48.491 22.146,48.929 21.629 L 49.250 21.250 48.904 21.542 C 48.419 21.949,43.738 21.988,43.894 21.583 C 43.946 21.446,43.911 21.333,43.816 21.333 C 43.720 21.333,43.667 21.465,43.698 21.625 M43.726 22.585 C 43.673 22.724,43.718 22.944,43.826 23.075 C 43.963 23.240,43.972 23.407,43.857 23.623 C 43.745 23.832,43.746 24.014,43.861 24.176 C 44.000 24.372,44.014 24.363,43.938 24.127 C 43.808 23.722,44.248 23.644,46.333 23.701 L 48.083 23.750 48.034 24.167 C 48.007 24.396,47.707 24.837,47.368 25.146 C 47.028 25.456,46.900 25.632,47.083 25.537 C 47.751 25.191,48.200 24.545,48.200 23.930 C 48.200 23.415,48.254 23.333,48.590 23.333 C 49.123 23.333,49.259 23.044,48.907 22.656 C 48.512 22.220,43.891 22.157,43.726 22.585 M48.833 22.750 C 49.016 22.970,48.733 23.000,46.437 23.000 C 44.234 23.000,43.833 22.962,43.833 22.750 C 43.833 22.539,44.211 22.500,46.230 22.500 C 48.156 22.500,48.667 22.549,48.833 22.750 M44.000 24.606 C 44.000 24.793,44.608 25.381,45.000 25.573 C 45.137 25.640,45.067 25.547,44.844 25.365 C 44.621 25.184,44.339 24.900,44.219 24.736 C 44.098 24.571,44.000 24.513,44.000 24.606 M44.167 25.787 C 42.913 26.167,41.343 27.565,41.732 27.954 C 41.783 28.005,41.894 27.867,41.979 27.648 C 42.234 26.989,43.176 26.261,44.177 25.949 C 44.369 25.889,44.496 26.071,44.662 26.642 C 44.786 27.068,45.054 27.664,45.257 27.967 L 45.626 28.518 45.738 28.073 C 45.799 27.828,45.808 27.586,45.758 27.536 C 45.708 27.486,45.667 27.581,45.667 27.748 C 45.667 28.333,45.078 27.565,44.831 26.658 C 44.579 25.733,44.535 25.676,44.167 25.787 M45.625 25.784 C 45.831 25.824,46.169 25.824,46.375 25.784 C 46.581 25.745,46.413 25.712,46.000 25.712 C 45.587 25.712,45.419 25.745,45.625 25.784 M48.227 26.084 C 48.490 26.221,48.790 26.333,48.894 26.332 C 48.998 26.332,48.869 26.219,48.606 26.082 C 48.343 25.945,48.043 25.834,47.939 25.834 C 47.835 25.835,47.965 25.947,48.227 26.084 M382.958 26.284 L 383.333 26.357 383.333 30.581 C 383.333 33.300,383.272 34.836,383.162 34.890 C 383.069 34.937,383.087 34.956,383.204 34.932 C 383.369 34.899,383.427 33.901,383.461 30.528 L 383.506 26.167 383.044 26.189 C 382.651 26.209,382.639 26.223,382.958 26.284 M49.167 26.378 C 49.167 26.530,50.022 27.367,50.099 27.290 C 50.134 27.254,49.939 27.011,49.665 26.748 C 49.391 26.486,49.167 26.319,49.167 26.378 M0.292 26.618 L 0.667 26.690 0.667 34.575 L 0.667 42.459 0.292 42.726 C -0.038 42.961,-0.043 42.981,0.250 42.890 C 1.002 42.657,1.000 42.678,1.000 34.486 C 1.000 26.124,1.033 26.454,0.195 26.523 C 0.031 26.536,0.071 26.575,0.292 26.618 M17.250 26.604 C 17.578 26.678,17.583 26.796,17.538 33.454 C 17.513 37.181,17.529 40.193,17.574 40.148 C 17.619 40.103,17.664 37.033,17.673 33.325 L 17.691 26.583 17.304 26.556 C 17.006 26.535,16.994 26.546,17.250 26.604 M46.013 28.658 C 45.892 28.733,45.821 28.881,45.857 28.986 C 45.902 29.124,46.010 29.113,46.236 28.948 C 46.577 28.698,46.375 28.435,46.013 28.658 M50.264 28.958 C 50.196 29.027,49.864 29.174,49.528 29.285 L 48.917 29.487 49.500 29.393 C 49.970 29.318,50.818 28.833,50.480 28.833 C 50.430 28.833,50.333 28.890,50.264 28.958 M42.014 29.227 C 42.052 29.259,42.308 29.337,42.583 29.398 C 42.948 29.480,43.016 29.464,42.833 29.341 C 42.608 29.189,41.847 29.082,42.014 29.227 M44.542 29.624 C 45.344 29.655,46.656 29.655,47.458 29.624 C 48.260 29.594,47.604 29.569,46.000 29.569 C 44.396 29.569,43.740 29.594,44.542 29.624 M391.375 32.786 C 391.627 32.824,392.040 32.824,392.292 32.786 C 392.544 32.748,392.337 32.717,391.833 32.717 C 391.329 32.717,391.123 32.748,391.375 32.786 M393.463 33.110 C 393.763 33.258,394.198 33.603,394.428 33.877 C 394.659 34.151,394.885 34.338,394.931 34.291 C 395.066 34.156,393.478 32.833,393.185 32.837 C 393.037 32.839,393.162 32.962,393.463 33.110 M389.096 33.863 C 388.768 34.246,388.500 34.633,388.500 34.722 C 388.500 34.811,388.721 34.578,388.992 34.205 C 389.262 33.831,389.618 33.447,389.783 33.351 C 389.948 33.255,389.995 33.175,389.888 33.172 C 389.781 33.169,389.424 33.480,389.096 33.863 M391.000 33.333 C 390.600 33.461,390.599 33.467,390.958 33.483 C 391.234 33.496,391.333 33.602,391.333 33.885 C 391.333 34.096,391.446 34.415,391.584 34.593 C 391.823 34.901,391.829 34.896,391.699 34.500 C 391.466 33.788,391.555 33.441,392.000 33.316 C 392.397 33.205,392.393 33.200,391.917 33.200 C 391.642 33.200,391.229 33.260,391.000 33.333 M392.743 33.455 C 392.923 33.501,393.260 33.651,393.493 33.789 L 393.917 34.040 393.500 33.690 C 393.271 33.498,392.933 33.348,392.750 33.356 C 392.425 33.372,392.425 33.374,392.743 33.455 M391.976 34.209 C 392.060 34.293,392.306 34.334,392.522 34.300 C 392.856 34.247,392.833 34.224,392.370 34.147 C 392.039 34.092,391.883 34.116,391.976 34.209 M394.000 34.316 C 394.000 34.412,393.869 34.448,393.708 34.398 C 393.454 34.318,393.457 34.339,393.734 34.565 C 394.024 34.802,394.027 34.833,393.771 34.932 C 393.592 35.000,393.525 35.149,393.585 35.340 C 393.639 35.510,393.587 35.671,393.465 35.712 C 393.347 35.752,393.414 35.758,393.614 35.725 C 393.863 35.685,394.011 35.771,394.083 35.998 C 394.204 36.381,394.063 36.686,393.779 36.651 C 393.328 36.596,393.167 36.685,393.167 36.990 C 393.167 37.168,393.235 37.356,393.318 37.407 C 393.401 37.458,393.430 37.350,393.382 37.167 C 393.314 36.909,393.376 36.833,393.658 36.833 C 393.858 36.833,394.177 36.751,394.366 36.649 C 394.684 36.479,394.704 36.504,394.634 36.983 C 394.592 37.267,394.620 37.500,394.696 37.500 C 394.771 37.500,394.832 37.031,394.831 36.458 C 394.829 35.769,394.777 35.497,394.677 35.656 C 394.552 35.853,394.480 35.857,394.265 35.679 C 393.940 35.410,394.099 35.110,394.509 35.217 C 394.775 35.287,394.788 35.252,394.615 34.947 C 394.337 34.455,394.000 34.110,394.000 34.316 M389.097 34.774 C 389.039 34.924,389.031 35.087,389.079 35.135 C 389.127 35.183,389.167 35.135,389.167 35.028 C 389.167 34.771,389.653 34.779,389.995 35.042 C 390.144 35.156,390.090 35.081,389.874 34.875 C 389.407 34.429,389.238 34.407,389.097 34.774 M392.000 34.816 C 392.000 34.897,392.119 35.010,392.264 35.066 C 392.640 35.210,392.668 35.196,392.560 34.917 C 392.458 34.649,392.000 34.567,392.000 34.816 M388.268 35.264 C 387.975 36.026,388.566 38.989,388.937 38.619 C 388.970 38.585,388.840 38.232,388.648 37.834 C 388.373 37.266,388.313 36.883,388.365 36.055 C 388.437 34.931,388.427 34.849,388.268 35.264 M388.768 35.597 C 388.590 36.061,388.671 36.904,388.934 37.333 C 389.078 37.568,389.131 37.604,389.056 37.417 C 388.983 37.233,388.922 36.690,388.920 36.208 C 388.916 35.239,388.912 35.221,388.768 35.597 M395.381 36.250 C 395.382 36.708,395.415 36.876,395.453 36.623 C 395.491 36.369,395.490 35.994,395.451 35.789 C 395.411 35.584,395.380 35.792,395.381 36.250 M389.193 36.208 L 389.167 36.833 390.458 36.800 L 391.750 36.767 390.552 36.710 L 389.353 36.652 389.287 36.118 C 389.222 35.600,389.219 35.603,389.193 36.208 M392.583 37.667 C 393.035 38.125,393.442 38.500,393.487 38.500 C 393.533 38.500,393.201 38.125,392.750 37.667 C 392.299 37.208,391.892 36.833,391.846 36.833 C 391.800 36.833,392.132 37.208,392.583 37.667 M390.093 38.911 C 390.271 39.046,390.492 39.156,390.583 39.156 C 390.675 39.156,390.604 39.046,390.426 38.911 C 390.249 38.777,390.028 38.667,389.936 38.667 C 389.845 38.667,389.915 38.777,390.093 38.911 M391.458 39.370 C 391.728 39.500,391.939 39.500,392.208 39.370 C 392.538 39.211,392.492 39.189,391.833 39.189 C 391.175 39.189,391.129 39.211,391.458 39.370 M212.377 39.453 C 212.631 39.491,213.006 39.490,213.211 39.451 C 213.416 39.411,213.208 39.380,212.750 39.381 C 212.292 39.382,212.124 39.415,212.377 39.453 M390.937 39.854 C 391.329 40.008,392.325 40.013,392.702 39.863 C 392.858 39.801,392.455 39.746,391.806 39.740 C 391.137 39.735,390.760 39.784,390.937 39.854 M56.414 49.542 C 56.284 49.901,56.243 61.324,56.373 61.194 C 56.440 61.126,56.515 58.486,56.539 55.327 L 56.583 49.583 57.250 49.583 L 57.917 49.583 58.006 54.583 C 58.055 57.333,58.112 59.602,58.131 59.626 C 58.151 59.649,66.548 59.649,76.792 59.626 L 95.417 59.583 95.461 54.628 L 95.505 49.672 95.902 49.572 C 96.121 49.517,96.476 49.497,96.691 49.528 L 97.083 49.583 97.173 54.583 C 97.222 57.333,97.278 59.602,97.298 59.625 C 97.487 59.848,133.978 59.633,134.260 59.407 C 134.572 59.157,134.571 59.154,134.218 59.325 C 133.966 59.447,128.205 59.488,115.635 59.459 L 97.417 59.417 97.333 54.417 L 97.250 49.417 96.375 49.366 C 95.297 49.304,95.444 48.589,95.340 54.417 L 95.250 59.417 76.750 59.417 L 58.250 59.417 58.206 54.375 L 58.162 49.333 57.326 49.333 C 56.808 49.333,56.461 49.413,56.414 49.542 M134.794 49.451 C 135.001 49.491,135.301 49.490,135.460 49.448 C 135.620 49.406,135.450 49.374,135.083 49.375 C 134.717 49.377,134.586 49.411,134.794 49.451 M173.206 54.292 L 173.245 59.250 173.292 54.375 L 173.338 49.500 174.000 49.500 L 174.662 49.500 174.708 54.375 L 174.755 59.250 174.794 54.292 L 174.833 49.333 174.000 49.333 L 173.167 49.333 173.206 54.292 M212.377 49.453 C 212.631 49.491,213.006 49.490,213.211 49.451 C 213.416 49.411,213.208 49.380,212.750 49.381 C 212.292 49.382,212.124 49.415,212.377 49.453 M251.039 54.282 L 251.078 59.250 251.125 54.375 L 251.172 49.500 251.669 49.500 L 252.167 49.500 252.167 54.411 C 252.167 59.103,252.181 59.329,252.490 59.495 C 253.007 59.771,289.376 59.649,289.432 59.371 C 289.456 59.254,289.437 59.235,289.390 59.329 C 289.289 59.534,252.866 59.568,252.544 59.364 C 252.390 59.266,252.327 57.997,252.294 54.325 L 252.250 49.417 251.625 49.365 L 251.000 49.313 251.039 54.282 M289.500 49.690 C 289.500 50.037,289.516 50.042,289.716 49.769 C 289.867 49.562,290.103 49.490,290.507 49.529 L 291.083 49.583 291.173 54.583 C 291.222 57.333,291.278 59.602,291.298 59.625 C 291.450 59.804,328.498 59.639,328.615 59.458 C 328.689 59.344,328.787 57.075,328.833 54.417 L 328.917 49.583 329.458 49.531 L 330.000 49.479 330.000 54.396 C 330.000 57.101,330.056 59.348,330.125 59.391 C 330.194 59.434,330.229 57.188,330.204 54.401 L 330.157 49.333 329.430 49.333 C 328.461 49.333,328.500 49.111,328.500 54.681 L 328.500 59.501 309.958 59.459 L 291.417 59.417 291.333 54.417 L 291.250 49.417 290.375 49.366 C 289.564 49.320,289.500 49.343,289.500 49.690 M368.042 49.456 L 368.833 49.518 368.833 55.333 C 368.833 58.531,368.890 61.182,368.958 61.224 C 369.089 61.305,369.051 49.905,368.919 49.542 C 368.871 49.408,368.557 49.344,368.047 49.363 L 367.250 49.393 368.042 49.456 M367.206 54.541 L 367.167 59.499 348.792 59.542 L 330.417 59.585 348.797 59.626 C 363.472 59.658,367.193 59.624,367.258 59.456 C 367.302 59.341,367.317 57.072,367.292 54.415 L 367.245 49.583 367.206 54.541 M21.575 52.010 C 21.216 52.406,21.399 52.888,21.935 52.958 C 22.177 52.990,22.163 52.962,21.875 52.839 C 21.669 52.750,21.500 52.577,21.500 52.455 C 21.500 51.944,21.905 51.833,23.777 51.833 L 25.654 51.833 25.807 52.458 C 26.517 55.366,26.657 55.673,26.169 53.251 C 25.839 51.610,25.925 51.667,23.770 51.667 C 22.079 51.667,21.853 51.702,21.575 52.010 M22.723 53.333 C 22.755 53.833,23.230 53.904,23.280 53.417 C 23.307 53.158,23.295 53.148,23.228 53.375 C 23.108 53.782,22.872 53.739,22.776 53.292 C 22.705 52.961,22.699 52.966,22.723 53.333 M24.500 54.573 L 24.500 56.167 23.917 56.167 C 23.596 56.167,23.333 56.092,23.333 56.000 C 23.333 55.908,23.189 55.833,23.014 55.833 C 21.692 55.833,21.758 54.545,23.084 54.453 L 24.002 54.389 23.043 54.403 L 22.083 54.417 22.032 55.043 C 21.994 55.491,22.054 55.698,22.240 55.769 C 22.674 55.936,22.531 56.167,21.995 56.167 C 21.378 56.167,21.161 56.584,21.604 56.919 C 22.077 57.277,22.261 57.213,21.810 56.848 C 21.248 56.392,21.474 56.289,23.036 56.292 C 23.795 56.294,24.510 56.220,24.625 56.127 C 24.879 55.922,24.916 53.237,24.667 53.083 C 24.560 53.017,24.500 53.554,24.500 54.573 M376.711 53.453 C 376.964 53.491,377.339 53.490,377.544 53.451 C 377.749 53.411,377.542 53.380,377.083 53.381 C 376.625 53.382,376.457 53.415,376.711 53.453 M376.500 53.917 C 376.500 54.127,376.639 54.175,377.125 54.135 C 377.469 54.107,377.750 54.008,377.750 53.917 C 377.750 53.825,377.469 53.727,377.125 53.698 C 376.639 53.658,376.500 53.706,376.500 53.917 M377.458 53.948 C 377.298 53.990,377.035 53.990,376.875 53.948 C 376.715 53.906,376.846 53.872,377.167 53.872 C 377.488 53.872,377.619 53.906,377.458 53.948 M374.912 54.341 C 374.853 54.436,374.895 54.624,375.006 54.757 C 375.117 54.891,375.142 55.015,375.062 55.034 C 374.982 55.052,375.853 55.109,376.997 55.159 L 379.078 55.250 379.024 56.000 C 378.994 56.413,379.024 56.696,379.091 56.630 C 379.158 56.564,379.230 56.114,379.251 55.630 L 379.291 54.750 377.552 54.807 C 375.564 54.872,374.925 54.770,375.063 54.410 C 375.171 54.129,375.071 54.084,374.912 54.341 M26.600 55.942 C 26.690 56.543,26.655 56.661,26.338 56.831 C 26.136 56.939,26.015 57.070,26.068 57.124 C 26.485 57.541,27.029 56.052,26.662 55.500 C 26.544 55.324,26.526 55.454,26.600 55.942 M375.039 55.917 C 375.039 56.192,375.097 56.642,375.167 56.917 L 375.294 57.417 375.294 56.917 C 375.294 56.642,375.237 56.192,375.167 55.917 L 375.039 55.417 375.039 55.917 M376.833 55.816 C 376.833 55.911,376.943 55.947,377.077 55.896 C 377.277 55.819,377.331 56.067,377.378 57.276 L 377.435 58.750 377.426 57.252 C 377.418 55.962,377.376 55.746,377.125 55.698 C 376.965 55.667,376.833 55.720,376.833 55.816 M377.931 55.861 C 377.656 56.737,377.671 58.857,377.951 58.803 C 378.463 58.704,378.699 55.869,378.208 55.707 C 378.094 55.670,377.969 55.739,377.931 55.861 M378.333 56.677 C 378.333 57.196,378.269 57.480,378.167 57.417 C 378.075 57.360,378.000 56.981,378.000 56.573 C 378.000 56.166,378.075 55.833,378.167 55.833 C 378.258 55.833,378.333 56.213,378.333 56.677 M375.857 57.447 C 375.831 58.202,376.065 59.000,376.311 59.000 C 376.553 59.000,376.696 58.463,376.505 58.272 C 376.411 58.177,376.321 57.834,376.307 57.508 L 376.280 56.917 376.193 57.500 L 376.106 58.083 375.993 57.417 L 375.881 56.750 375.857 57.447 M378.771 58.625 C 378.698 59.014,378.513 59.406,378.360 59.495 C 378.117 59.637,378.115 59.657,378.347 59.662 C 378.707 59.669,379.040 58.991,378.966 58.402 C 378.911 57.963,378.893 57.984,378.771 58.625 M375.333 59.117 C 375.333 59.309,375.806 59.754,375.899 59.649 C 375.931 59.613,375.817 59.439,375.645 59.263 C 375.474 59.086,375.333 59.021,375.333 59.117 M211.732 59.335 C 211.620 59.446,205.389 59.488,193.214 59.460 C 183.122 59.436,174.900 59.473,174.942 59.542 C 175.110 59.812,211.608 59.689,211.833 59.417 C 212.066 59.136,211.991 59.075,211.732 59.335 M213.503 59.375 C 213.500 59.651,214.482 59.665,232.125 59.626 L 250.750 59.585 232.259 59.542 C 217.721 59.508,213.741 59.454,213.637 59.291 C 213.543 59.143,213.504 59.168,213.503 59.375 M135.710 59.500 C 135.784 59.773,172.753 59.980,173.024 59.709 C 173.093 59.640,164.777 59.603,154.544 59.626 C 139.742 59.661,135.908 59.627,135.790 59.460 C 135.679 59.303,135.659 59.313,135.710 59.500 M7.084 59.832 C 6.926 60.089,6.963 62.530,7.128 62.694 C 7.208 62.775,8.769 62.819,10.595 62.792 L 13.917 62.743 10.551 62.705 L 7.186 62.667 7.135 61.958 C 7.106 61.569,7.110 60.933,7.142 60.545 L 7.200 59.840 10.558 59.791 L 13.917 59.743 10.552 59.705 C 8.458 59.681,7.148 59.729,7.084 59.832 M7.913 60.505 C 7.154 61.735,7.818 62.167,10.471 62.167 C 13.099 62.167,13.345 62.064,13.179 61.040 L 13.078 60.417 10.551 60.371 C 8.871 60.340,7.988 60.385,7.913 60.505 M12.951 61.208 L 12.986 61.833 10.521 61.833 C 7.732 61.833,7.876 61.876,7.968 61.084 L 8.037 60.491 10.477 60.537 L 12.917 60.583 12.951 61.208 " stroke="none" fill="#b3b4b4" fill-rule="evenodd"></path><path id="path3" d="M6.944 9.444 C 6.883 9.506,6.833 9.843,6.833 10.194 L 6.833 10.833 5.430 10.833 C 2.900 10.833,0.344 12.609,0.335 14.375 C 0.334 14.535,0.258 14.667,0.167 14.667 C 0.059 14.667,0.000 16.750,0.000 20.583 C 0.000 25.206,0.046 26.500,0.208 26.500 C 0.372 26.500,0.407 25.289,0.371 20.879 C 0.324 15.240,0.335 15.096,0.927 13.744 C 1.621 12.157,3.342 11.167,5.405 11.167 L 6.813 11.167 6.879 11.792 C 6.915 12.135,6.957 11.760,6.972 10.958 L 7.000 9.500 10.406 9.500 L 13.812 9.500 13.879 10.042 C 13.946 10.575,13.947 10.574,13.973 9.958 L 14.000 9.333 10.528 9.333 C 8.618 9.333,7.006 9.383,6.944 9.444 M17.234 10.261 L 16.951 10.856 15.475 10.803 C 14.399 10.764,13.999 10.805,14.000 10.953 C 14.000 11.095,14.505 11.169,15.708 11.203 L 17.417 11.250 17.460 18.792 C 17.494 24.765,17.460 26.336,17.293 26.344 C 17.178 26.350,17.260 26.425,17.476 26.512 C 17.738 26.617,17.835 26.756,17.767 26.931 C 17.712 27.076,17.667 30.188,17.667 33.847 L 17.667 40.500 17.246 40.500 L 16.826 40.500 16.871 33.500 C 16.896 29.650,16.860 26.500,16.792 26.500 C 16.723 26.500,16.667 29.641,16.667 33.481 L 16.667 40.462 17.083 40.735 L 17.500 41.008 17.500 50.804 C 17.500 62.074,17.703 61.000,15.569 61.000 C 13.862 61.000,13.810 61.041,13.861 62.333 C 13.882 62.876,13.890 62.865,13.983 62.184 L 14.083 61.451 204.667 61.434 C 371.271 61.419,395.350 61.386,396.044 61.173 C 397.549 60.712,398.953 59.336,399.465 57.822 C 399.818 56.779,399.750 15.233,399.394 14.145 C 399.069 13.152,397.756 11.637,396.961 11.338 C 396.662 11.225,396.267 11.071,396.083 10.994 C 395.067 10.572,351.406 10.474,205.833 10.568 C 66.470 10.658,45.246 10.703,25.115 10.952 C 17.041 11.052,17.026 11.050,17.375 10.265 L 17.583 9.797 21.667 9.920 C 31.499 10.217,32.811 10.245,32.700 10.150 C 32.594 10.059,20.742 9.654,18.466 9.663 C 17.542 9.667,17.508 9.683,17.234 10.261 M8.115 10.273 C 8.052 10.337,8.000 10.678,8.000 11.032 L 8.000 11.676 10.458 11.629 L 12.917 11.583 12.917 10.917 L 12.917 10.250 10.574 10.204 C 9.285 10.179,8.179 10.210,8.115 10.273 M12.833 10.667 C 12.833 10.770,11.944 10.833,10.500 10.833 C 9.056 10.833,8.167 10.770,8.167 10.667 C 8.167 10.563,9.056 10.500,10.500 10.500 C 11.944 10.500,12.833 10.563,12.833 10.667 M368.861 10.752 C 369.086 10.838,369.145 38.715,368.922 39.297 C 368.856 39.467,368.603 39.516,367.999 39.474 C 367.541 39.443,367.167 39.477,367.167 39.550 C 367.167 39.623,367.596 39.661,368.120 39.633 L 369.074 39.583 369.219 38.848 C 369.376 38.051,369.456 37.942,370.333 37.336 C 370.654 37.114,370.954 36.892,371.000 36.841 C 371.091 36.742,371.636 36.322,373.917 34.598 C 376.178 32.888,376.000 33.323,376.000 29.498 L 376.000 26.200 378.042 26.087 C 379.165 26.025,380.608 25.998,381.250 26.029 L 382.417 26.083 382.461 30.476 C 382.503 34.638,382.523 34.882,382.839 35.142 C 383.168 35.413,383.172 35.587,383.128 48.167 L 383.083 60.917 376.208 60.960 C 372.427 60.984,369.318 60.984,369.299 60.960 C 369.280 60.936,369.224 58.292,369.174 55.083 L 369.083 49.250 368.125 49.200 C 367.291 49.157,367.168 49.189,367.180 49.450 C 367.187 49.625,367.228 49.663,367.277 49.542 C 367.327 49.419,367.665 49.333,368.102 49.333 C 369.060 49.333,368.988 48.855,369.039 55.542 L 369.083 61.334 212.667 61.334 L 56.250 61.334 56.294 55.542 C 56.346 48.803,56.257 49.333,57.326 49.333 L 58.162 49.333 58.206 54.375 L 58.250 59.417 76.750 59.417 L 95.250 59.417 95.340 54.417 C 95.444 48.589,95.297 49.304,96.375 49.366 L 97.250 49.417 97.333 54.417 L 97.417 59.417 115.667 59.418 L 133.917 59.419 115.708 59.375 L 97.500 59.332 97.500 54.513 C 97.500 48.814,97.577 49.167,96.335 49.167 C 95.102 49.167,95.172 48.842,95.169 54.625 L 95.167 59.333 76.752 59.333 L 58.338 59.333 58.294 54.292 L 58.250 49.250 57.250 49.250 L 56.250 49.250 56.206 55.125 L 56.162 61.000 43.917 61.000 L 31.671 61.000 31.627 54.958 L 31.583 48.917 30.750 48.376 C 30.292 48.078,29.826 47.759,29.715 47.667 C 29.605 47.575,29.477 47.500,29.431 47.500 C 29.385 47.500,28.481 46.938,27.422 46.250 C 26.363 45.563,25.459 45.000,25.413 45.000 C 25.368 45.000,24.712 44.599,23.957 44.108 C 20.762 42.034,18.304 40.500,18.175 40.500 C 18.098 40.500,17.990 40.381,17.934 40.236 C 17.804 39.895,17.802 27.167,17.933 27.167 C 18.044 27.167,19.372 27.886,21.000 28.828 C 21.596 29.172,22.421 29.641,22.833 29.870 C 23.246 30.099,23.883 30.458,24.250 30.668 C 24.617 30.877,25.329 31.274,25.833 31.549 C 26.337 31.823,26.825 32.102,26.917 32.168 C 27.008 32.235,27.421 32.476,27.833 32.704 C 28.246 32.933,28.865 33.280,29.208 33.476 C 30.730 34.345,31.133 34.572,31.917 35.002 C 32.375 35.254,33.491 35.881,34.396 36.396 C 35.302 36.912,36.102 37.333,36.174 37.333 C 36.246 37.333,36.331 37.390,36.361 37.458 C 36.392 37.527,36.881 37.827,37.449 38.125 L 38.482 38.667 47.313 38.667 L 56.145 38.667 56.197 39.125 C 56.247 39.559,56.301 39.586,57.208 39.633 L 58.167 39.683 58.169 26.217 C 58.171 18.810,58.232 12.656,58.305 12.541 C 58.410 12.375,62.229 12.341,76.844 12.374 L 95.250 12.417 95.351 20.333 C 95.407 24.688,95.463 30.819,95.476 33.958 L 95.500 39.667 96.416 39.667 L 97.331 39.667 97.374 26.042 L 97.417 12.417 115.875 12.374 L 134.333 12.332 134.333 25.999 L 134.333 39.667 135.167 39.667 C 135.720 39.667,136.001 39.597,136.004 39.458 C 136.006 39.344,136.004 33.317,136.000 26.065 C 135.996 18.813,136.040 12.757,136.097 12.607 C 136.194 12.356,137.699 12.333,154.600 12.333 L 172.998 12.333 173.042 25.875 L 173.085 39.417 173.126 25.792 L 173.167 12.167 154.677 12.167 C 140.067 12.167,136.158 12.210,136.052 12.375 C 135.977 12.490,135.879 18.621,135.833 26.000 L 135.750 39.417 135.126 39.468 L 134.502 39.520 134.459 25.885 L 134.417 12.250 115.875 12.208 C 105.677 12.184,97.316 12.184,97.294 12.208 C 97.273 12.231,97.216 18.362,97.169 25.833 L 97.083 39.417 96.375 39.468 L 95.667 39.519 95.667 26.267 C 95.667 16.566,95.615 12.902,95.473 12.591 L 95.280 12.167 76.816 12.167 C 62.229 12.167,58.325 12.210,58.218 12.375 C 58.144 12.490,58.046 18.621,58.000 26.000 L 57.917 39.417 57.207 39.468 C 56.733 39.502,56.469 39.446,56.412 39.299 C 56.242 38.855,56.246 10.835,56.417 10.763 C 56.658 10.662,368.597 10.650,368.861 10.752 M12.833 11.333 C 12.833 11.437,11.944 11.500,10.500 11.500 C 9.056 11.500,8.167 11.437,8.167 11.333 C 8.167 11.230,9.056 11.167,10.500 11.167 C 11.944 11.167,12.833 11.230,12.833 11.333 M31.728 11.542 C 31.878 12.099,31.850 33.883,31.699 34.120 C 31.567 34.328,31.038 34.107,29.417 33.171 C 29.050 32.959,28.412 32.598,28.000 32.369 C 27.587 32.140,26.425 31.487,25.417 30.918 C 24.408 30.350,23.246 29.696,22.833 29.466 C 22.421 29.236,21.783 28.874,21.417 28.663 C 21.050 28.451,20.150 27.947,19.417 27.542 C 18.683 27.137,17.990 26.685,17.875 26.537 C 17.650 26.248,17.556 11.500,17.778 11.278 C 17.839 11.217,20.980 11.167,24.758 11.167 L 31.628 11.167 31.728 11.542 M56.043 11.486 C 56.112 11.550,56.149 17.598,56.126 24.926 L 56.083 38.250 47.358 38.293 L 38.633 38.336 37.441 37.695 C 36.786 37.342,35.969 36.892,35.625 36.694 C 34.555 36.077,33.778 35.635,33.000 35.201 C 32.587 34.971,32.195 34.700,32.128 34.600 C 31.979 34.377,31.961 12.079,32.109 11.525 L 32.214 11.134 44.065 11.253 C 50.584 11.318,55.973 11.423,56.043 11.486 M383.000 18.327 C 383.000 26.848,383.539 25.833,379.011 25.833 L 375.667 25.833 375.667 29.264 L 375.667 32.695 375.125 33.169 C 373.264 34.798,369.447 37.518,369.315 37.309 C 369.148 37.046,369.112 11.443,369.278 11.278 C 369.339 11.217,372.451 11.167,376.194 11.167 L 383.000 11.167 383.000 18.327 M396.083 11.333 C 396.140 11.425,396.324 11.500,396.492 11.500 C 397.022 11.500,398.520 13.004,398.943 13.961 L 399.333 14.843 399.333 36.090 C 399.333 57.014,399.328 57.348,398.999 58.049 C 398.463 59.188,397.736 59.939,396.638 60.488 L 395.613 61.000 389.561 61.000 L 383.509 61.000 383.526 36.208 C 383.536 22.573,383.576 11.360,383.615 11.292 C 383.727 11.096,395.962 11.137,396.083 11.333 M13.858 11.872 L 13.833 12.493 10.375 12.542 L 6.917 12.590 10.380 12.629 C 14.150 12.670,14.098 12.683,13.954 11.722 C 13.894 11.323,13.879 11.346,13.858 11.872 M174.874 25.791 L 174.915 39.417 174.958 25.875 L 175.002 12.333 193.418 12.333 L 211.833 12.333 211.833 26.000 L 211.833 39.667 212.750 39.667 L 213.667 39.667 213.667 26.238 C 213.667 14.822,213.702 12.774,213.905 12.571 C 214.108 12.368,216.811 12.333,232.487 12.333 L 250.831 12.333 250.875 25.875 L 250.919 39.417 250.959 25.792 L 251.000 12.167 232.526 12.167 C 214.840 12.167,214.040 12.180,213.776 12.471 C 213.524 12.750,213.500 13.939,213.500 26.138 L 213.500 39.500 212.751 39.500 L 212.002 39.500 211.959 25.875 L 211.917 12.250 193.375 12.208 L 174.833 12.165 174.874 25.791 M252.293 25.792 L 252.250 39.417 251.583 39.518 L 250.917 39.619 251.607 39.643 C 252.562 39.676,252.500 40.635,252.500 25.737 L 252.500 12.335 270.958 12.292 L 289.417 12.249 270.876 12.208 L 252.335 12.167 252.293 25.792 M291.335 12.496 C 291.215 12.720,291.163 17.068,291.171 26.121 L 291.184 39.417 290.425 39.467 L 289.667 39.518 289.667 26.102 C 289.667 17.286,289.609 12.651,289.499 12.583 C 289.387 12.513,289.346 16.975,289.374 26.031 L 289.417 39.583 290.388 39.583 L 291.360 39.583 291.346 26.167 C 291.338 18.787,291.392 12.656,291.468 12.541 C 291.576 12.375,295.397 12.341,310.010 12.374 L 328.417 12.417 328.563 26.042 L 328.710 39.667 329.420 39.667 C 330.398 39.667,330.333 40.656,330.333 25.737 L 330.333 12.335 348.792 12.292 L 367.250 12.249 348.709 12.208 L 330.169 12.167 330.126 25.792 L 330.083 39.417 329.481 39.467 L 328.879 39.517 328.763 26.134 C 328.698 18.773,328.608 12.619,328.562 12.458 C 328.421 11.972,291.596 12.010,291.335 12.496 M375.109 14.138 C 374.957 14.306,374.833 14.612,374.833 14.820 C 374.833 15.027,374.665 15.341,374.458 15.517 C 374.084 15.838,374.084 15.838,374.604 15.553 C 375.015 15.328,375.121 15.165,375.104 14.782 C 375.077 14.145,375.520 13.830,375.904 14.213 C 376.083 14.392,376.141 14.627,376.074 14.896 C 375.993 15.217,376.064 15.368,376.402 15.589 C 376.958 15.954,377.078 18.165,376.542 18.169 C 376.300 18.171,376.291 18.198,376.492 18.325 C 376.909 18.588,377.000 18.353,377.000 17.018 C 377.000 15.810,376.972 15.708,376.587 15.502 C 376.266 15.330,376.196 15.192,376.273 14.884 C 376.468 14.108,375.625 13.568,375.109 14.138 M379.845 14.272 C 379.451 14.774,379.441 14.825,379.680 15.167 C 379.820 15.367,379.836 15.348,379.759 15.070 C 379.661 14.721,380.127 14.000,380.450 14.000 C 380.692 14.000,381.056 14.774,380.919 14.997 C 380.851 15.106,380.953 15.336,381.149 15.519 C 381.342 15.699,381.500 15.766,381.500 15.668 C 381.500 15.570,381.388 15.447,381.251 15.394 C 381.081 15.329,381.035 15.170,381.104 14.893 C 381.327 14.007,380.410 13.555,379.845 14.272 M377.705 17.625 C 377.743 20.716,377.787 21.250,378.000 21.250 C 378.299 21.250,378.448 19.095,378.365 15.958 C 378.317 14.142,378.290 14.000,377.987 14.000 C 377.671 14.000,377.662 14.120,377.705 17.625 M378.167 17.583 C 378.167 19.639,378.105 20.833,378.000 20.833 C 377.895 20.833,377.833 19.639,377.833 17.583 C 377.833 15.528,377.895 14.333,378.000 14.333 C 378.105 14.333,378.167 15.528,378.167 17.583 M379.213 15.538 C 379.026 15.774,378.847 16.451,378.737 17.333 C 378.693 17.692,378.761 17.564,378.914 17.000 C 379.051 16.496,379.244 15.945,379.343 15.775 C 379.555 15.412,379.456 15.230,379.213 15.538 M373.958 16.096 C 373.634 16.423,373.830 18.013,374.242 18.395 C 374.594 18.721,374.658 18.947,374.700 20.012 L 374.750 21.250 375.500 21.250 L 376.250 21.250 376.262 19.833 L 376.274 18.417 376.213 19.691 L 376.153 20.965 375.572 21.033 C 374.816 21.121,374.833 21.154,374.833 19.658 C 374.833 18.523,374.795 18.362,374.508 18.287 C 374.233 18.215,374.175 18.029,374.133 17.086 C 374.106 16.472,374.027 16.027,373.958 16.096 M381.505 16.167 C 381.505 16.304,381.578 16.529,381.667 16.667 C 381.810 16.889,381.828 16.889,381.828 16.667 C 381.828 16.529,381.756 16.304,381.667 16.167 C 381.523 15.944,381.505 15.944,381.505 16.167 M21.405 17.411 C 21.257 17.638,21.169 17.919,21.210 18.036 C 21.251 18.154,21.070 18.496,20.809 18.797 C 20.148 19.558,20.118 21.667,20.768 21.667 C 20.943 21.667,21.000 21.937,21.000 22.761 C 21.000 24.164,21.177 24.500,21.917 24.500 C 22.654 24.500,22.833 24.164,22.833 22.780 C 22.833 21.846,22.877 21.694,23.167 21.618 C 23.729 21.471,23.660 19.113,23.083 18.735 C 22.854 18.585,22.664 18.302,22.662 18.106 C 22.657 17.783,22.641 17.777,22.486 18.043 C 22.276 18.403,22.409 18.640,22.933 18.839 C 23.466 19.042,23.570 21.554,23.042 21.466 C 22.792 21.424,22.744 21.574,22.707 22.500 C 22.641 24.193,22.593 24.303,21.929 24.284 C 21.253 24.265,21.172 24.080,21.169 22.542 C 21.167 21.763,21.108 21.500,20.934 21.500 C 20.259 21.500,20.318 19.470,21.013 18.821 C 21.296 18.557,21.474 18.259,21.410 18.155 C 21.080 17.622,21.939 16.941,22.337 17.421 C 22.453 17.560,22.588 17.635,22.637 17.586 C 22.750 17.472,22.150 17.012,21.879 17.005 C 21.766 17.002,21.553 17.185,21.405 17.411 M26.362 17.386 C 26.163 17.598,26.000 17.911,26.000 18.081 C 26.000 18.251,25.869 18.538,25.708 18.719 C 25.424 19.038,25.427 19.041,25.792 18.817 C 26.026 18.673,26.167 18.423,26.167 18.152 C 26.167 17.420,26.787 16.990,27.167 17.459 C 27.350 17.685,27.432 17.974,27.375 18.191 C 27.320 18.404,27.379 18.625,27.521 18.733 C 28.251 19.291,28.402 21.984,27.726 22.383 C 27.585 22.466,27.500 22.822,27.500 23.324 C 27.500 24.106,27.167 24.571,26.907 24.151 C 26.840 24.043,26.715 24.057,26.556 24.190 C 26.223 24.466,26.006 24.122,26.003 23.312 C 26.001 22.980,25.887 22.614,25.750 22.500 C 25.613 22.386,25.500 22.114,25.500 21.896 C 25.500 21.678,25.417 21.500,25.316 21.500 C 25.138 21.500,25.150 21.267,25.409 19.667 C 25.489 19.168,25.467 19.193,25.254 19.833 C 24.965 20.704,24.928 21.436,25.167 21.583 C 25.258 21.640,25.333 21.837,25.333 22.022 C 25.333 22.206,25.446 22.470,25.583 22.607 C 25.721 22.745,25.833 23.147,25.833 23.502 C 25.833 24.217,26.009 24.397,26.750 24.439 C 27.452 24.479,27.667 24.236,27.667 23.405 C 27.667 22.975,27.758 22.629,27.892 22.550 C 28.335 22.288,28.543 19.977,28.159 19.592 C 28.071 19.505,28.000 19.308,28.000 19.154 C 28.000 19.000,27.882 18.776,27.738 18.657 C 27.585 18.530,27.514 18.299,27.566 18.099 C 27.764 17.340,26.891 16.823,26.362 17.386 M24.084 17.531 C 23.802 18.678,24.079 24.417,24.417 24.417 C 24.897 24.417,24.944 17.292,24.464 17.200 C 24.279 17.164,24.145 17.280,24.084 17.531 M381.850 17.615 C 381.841 17.908,381.758 18.193,381.667 18.250 C 381.575 18.307,381.500 18.532,381.500 18.750 C 381.500 18.968,381.425 19.193,381.333 19.250 C 381.242 19.307,381.167 19.435,381.167 19.536 C 381.167 19.636,381.319 19.580,381.506 19.411 C 381.692 19.243,381.803 18.995,381.752 18.862 C 381.701 18.729,381.760 18.462,381.883 18.268 C 382.022 18.050,382.062 17.758,381.987 17.500 C 381.874 17.109,381.866 17.116,381.850 17.615 M24.667 20.833 C 24.667 23.685,24.631 24.167,24.417 24.167 C 24.203 24.167,24.167 23.685,24.167 20.833 C 24.167 17.981,24.203 17.500,24.417 17.500 C 24.631 17.500,24.667 17.981,24.667 20.833 M378.667 18.213 C 378.667 18.371,378.747 18.500,378.845 18.500 C 378.942 18.500,378.978 18.639,378.924 18.810 C 378.867 18.989,378.933 19.209,379.080 19.330 C 379.219 19.446,379.336 19.813,379.339 20.145 C 379.346 20.943,379.640 21.305,380.255 21.271 C 380.887 21.236,381.172 21.054,381.147 20.698 C 381.130 20.444,381.120 20.445,381.052 20.708 C 380.974 21.007,380.942 21.021,380.288 21.050 C 379.679 21.077,379.500 20.860,379.500 20.094 C 379.500 19.660,379.402 19.292,379.252 19.168 C 379.115 19.055,379.045 18.896,379.095 18.815 C 379.145 18.734,379.069 18.500,378.926 18.297 C 378.713 17.992,378.667 17.977,378.667 18.213 M48.630 20.593 C 48.571 20.651,47.551 20.759,46.362 20.832 C 45.174 20.904,44.063 21.052,43.893 21.160 C 43.618 21.334,43.630 21.345,44.000 21.255 C 44.229 21.199,45.317 21.080,46.417 20.990 C 47.517 20.901,48.597 20.810,48.816 20.789 C 49.353 20.737,49.417 21.016,48.992 21.555 L 48.642 22.000 46.246 22.000 C 44.263 22.000,43.825 21.956,43.706 21.744 C 43.620 21.588,43.578 22.058,43.601 22.934 C 43.632 24.099,43.707 24.473,43.986 24.851 C 44.385 25.389,44.420 25.612,44.125 25.714 C 44.010 25.753,44.053 25.765,44.219 25.739 C 44.385 25.713,44.560 25.818,44.607 25.971 C 44.845 26.731,44.990 26.892,44.894 26.290 C 44.806 25.730,44.829 25.674,45.106 25.772 C 45.277 25.832,45.154 25.699,44.833 25.476 C 44.116 24.978,43.631 24.048,43.862 23.614 C 43.971 23.409,43.960 23.236,43.826 23.075 C 43.165 22.278,48.190 21.864,48.907 22.656 C 49.259 23.044,49.123 23.333,48.590 23.333 C 48.252 23.333,48.200 23.415,48.200 23.941 C 48.200 24.358,48.246 24.476,48.347 24.316 C 48.429 24.188,48.496 23.958,48.497 23.805 C 48.499 23.632,48.690 23.485,49.000 23.417 C 49.614 23.282,49.625 23.130,49.061 22.607 L 48.622 22.200 49.066 21.725 C 49.685 21.062,49.261 19.961,48.630 20.593 M47.812 24.944 C 47.686 25.096,47.358 25.366,47.083 25.543 C 46.653 25.821,46.638 25.854,46.971 25.779 C 47.253 25.715,47.336 25.753,47.272 25.918 C 47.224 26.043,47.106 26.432,47.009 26.781 C 46.729 27.794,46.477 28.043,46.535 27.250 C 46.580 26.626,46.553 26.580,46.105 26.529 C 45.480 26.457,45.247 26.693,45.490 27.149 C 45.642 27.432,45.631 27.500,45.435 27.500 C 45.301 27.500,45.157 27.369,45.115 27.208 C 45.053 26.971,45.035 26.966,45.019 27.183 C 45.009 27.329,45.150 27.584,45.333 27.750 C 45.700 28.082,45.749 27.979,45.673 27.042 C 45.651 26.767,45.733 26.667,45.978 26.667 C 46.244 26.667,46.324 26.794,46.365 27.279 C 46.462 28.430,46.806 28.116,47.330 26.396 C 47.504 25.824,47.599 25.721,47.895 25.785 C 48.172 25.845,48.197 25.825,48.009 25.693 C 47.815 25.556,47.806 25.442,47.964 25.095 C 48.190 24.601,48.138 24.549,47.812 24.944 M48.417 26.000 C 48.473 26.092,48.625 26.167,48.754 26.167 C 49.116 26.167,50.167 27.164,50.167 27.507 C 50.167 27.676,50.242 27.860,50.333 27.917 C 50.569 28.062,50.541 28.890,50.292 29.154 C 50.124 29.332,50.132 29.360,50.333 29.300 C 50.648 29.205,50.751 28.402,50.514 27.890 C 50.414 27.675,50.242 27.306,50.131 27.070 C 50.020 26.833,49.620 26.458,49.241 26.236 C 48.506 25.805,48.251 25.732,48.417 26.000 M42.327 26.650 C 42.010 26.916,41.787 27.167,41.833 27.207 C 41.879 27.246,42.176 27.029,42.493 26.723 C 43.203 26.038,43.107 25.997,42.327 26.650 M383.500 30.490 C 383.500 34.768,383.457 35.101,382.932 34.899 C 382.699 34.810,382.667 34.273,382.667 30.482 L 382.667 26.167 383.083 26.167 L 383.500 26.167 383.500 30.490 M41.611 27.611 C 41.342 27.881,41.494 29.333,41.792 29.331 C 42.019 29.329,42.034 29.297,41.857 29.185 C 41.702 29.087,41.649 28.794,41.691 28.270 C 41.725 27.847,41.746 27.500,41.737 27.500 C 41.729 27.500,41.672 27.550,41.611 27.611 M42.333 29.500 C 42.471 29.589,42.733 29.657,42.917 29.652 L 43.250 29.643 42.917 29.500 C 42.418 29.286,42.002 29.286,42.333 29.500 M49.167 29.500 C 48.823 29.610,48.809 29.636,49.083 29.648 C 49.267 29.655,49.529 29.589,49.667 29.500 C 49.959 29.311,49.756 29.311,49.167 29.500 M45.000 29.833 C 45.330 30.046,46.952 30.046,47.083 29.833 C 47.148 29.728,46.738 29.668,45.968 29.669 C 45.120 29.671,44.826 29.721,45.000 29.833 M390.250 32.817 C 388.845 33.469,387.981 34.848,388.025 36.370 L 388.051 37.250 388.163 36.250 C 388.436 33.809,389.626 32.743,392.059 32.758 C 392.780 32.763,393.230 32.712,393.059 32.645 C 392.458 32.409,390.928 32.502,390.250 32.817 M394.471 33.688 C 394.776 34.020,395.129 34.582,395.255 34.937 C 395.382 35.293,395.489 35.448,395.493 35.283 C 395.504 34.826,395.091 34.138,394.473 33.584 L 393.917 33.084 394.471 33.688 M391.568 33.525 C 391.417 33.770,391.957 34.172,392.407 34.150 C 392.649 34.138,392.590 34.081,392.208 33.959 C 391.546 33.746,391.513 33.545,392.125 33.453 L 392.583 33.383 392.135 33.358 C 391.888 33.345,391.633 33.420,391.568 33.525 M390.326 33.758 C 389.862 34.317,391.552 35.667,392.716 35.667 C 393.854 35.667,393.985 35.311,392.903 35.158 C 391.986 35.028,391.520 34.731,391.404 34.204 C 391.232 33.424,391.161 33.387,391.251 34.125 C 391.351 34.946,391.297 34.978,390.744 34.425 L 390.336 34.017 390.705 33.759 C 390.982 33.564,391.008 33.500,390.807 33.500 C 390.661 33.500,390.444 33.616,390.326 33.758 M393.167 33.833 L 393.583 34.159 393.167 34.185 C 392.841 34.205,392.877 34.235,393.333 34.321 C 393.654 34.382,393.954 34.403,394.000 34.368 C 394.111 34.282,393.130 33.501,392.917 33.505 C 392.825 33.506,392.938 33.654,393.167 33.833 M389.446 34.949 C 390.105 35.078,390.290 35.500,389.687 35.500 C 389.387 35.500,389.162 35.412,389.156 35.292 C 389.150 35.177,389.074 35.263,388.986 35.483 C 388.898 35.702,388.876 35.927,388.936 35.983 C 388.996 36.038,389.079 35.990,389.120 35.875 C 389.161 35.760,389.401 35.667,389.653 35.667 C 389.905 35.667,390.161 35.617,390.223 35.555 C 390.410 35.368,389.804 34.832,389.433 34.856 C 389.093 34.878,389.094 34.881,389.446 34.949 M392.085 35.180 C 392.178 35.251,392.553 35.339,392.919 35.376 C 393.506 35.436,393.481 35.447,392.696 35.472 C 391.901 35.497,391.333 35.273,391.333 34.934 C 391.333 34.828,391.842 34.995,392.085 35.180 M394.095 35.314 C 394.045 35.396,394.121 35.560,394.265 35.679 C 394.539 35.906,394.915 35.600,394.729 35.300 C 394.619 35.121,394.209 35.131,394.095 35.314 M395.542 36.250 C 395.544 36.617,395.578 36.747,395.618 36.540 C 395.658 36.332,395.656 36.032,395.615 35.873 C 395.573 35.714,395.540 35.883,395.542 36.250 M388.836 36.708 C 388.840 37.070,389.112 37.391,389.239 37.184 C 389.305 37.077,389.857 37.000,390.558 37.000 L 391.763 37.000 392.549 37.799 C 393.530 38.795,393.401 39.000,391.796 39.000 C 390.670 39.000,390.650 38.992,389.912 38.254 C 389.143 37.485,388.878 37.425,389.542 38.171 C 390.231 38.945,390.753 39.167,391.885 39.167 C 393.574 39.167,393.748 38.817,392.616 37.699 L 391.740 36.833 390.453 36.833 C 389.707 36.833,389.167 36.763,389.167 36.667 C 389.167 36.575,389.092 36.500,389.000 36.500 C 388.908 36.500,388.834 36.594,388.836 36.708 M394.333 36.668 C 394.196 36.756,393.915 36.829,393.708 36.831 C 393.280 36.834,393.213 37.193,393.583 37.500 C 393.756 37.643,393.833 37.650,393.833 37.520 C 393.833 37.418,393.758 37.333,393.667 37.333 C 393.575 37.333,393.500 37.258,393.500 37.167 C 393.500 37.075,393.725 37.000,394.000 37.000 C 394.552 37.000,394.631 37.178,394.249 37.561 C 394.093 37.717,394.061 37.851,394.166 37.916 C 394.365 38.039,394.703 37.235,394.633 36.807 C 394.596 36.585,394.519 36.550,394.333 36.668 M395.353 37.235 C 395.208 39.612,391.340 40.823,389.460 39.080 C 389.215 38.853,388.956 38.667,388.884 38.667 C 388.579 38.667,389.727 39.538,390.429 39.839 C 392.477 40.716,395.892 38.943,395.452 37.230 C 395.375 36.927,395.371 36.928,395.353 37.235 M173.542 39.619 C 173.794 39.658,174.206 39.658,174.458 39.619 C 174.710 39.581,174.504 39.550,174.000 39.550 C 173.496 39.550,173.290 39.581,173.542 39.619 M19.294 41.558 C 22.083 43.358,24.693 45.000,24.767 45.000 C 24.812 45.000,25.389 45.361,26.049 45.803 C 26.710 46.245,28.123 47.145,29.191 47.803 C 30.258 48.462,31.177 49.119,31.232 49.264 C 31.438 49.799,31.345 60.588,31.133 60.800 C 30.790 61.143,17.900 61.082,17.768 60.736 C 17.629 60.375,17.639 41.083,17.778 40.944 C 17.974 40.748,18.149 40.819,19.294 41.558 M0.833 42.504 C 0.833 42.598,0.646 42.746,0.417 42.833 L 0.000 42.992 0.000 50.246 C 0.000 54.971,0.058 57.500,0.167 57.500 C 0.258 57.500,0.333 57.615,0.333 57.757 C 0.333 59.487,2.725 61.197,5.292 61.302 L 6.833 61.366 6.833 62.006 C 6.833 62.359,6.894 62.685,6.969 62.731 C 7.043 62.777,7.062 62.463,7.011 62.032 C 6.959 61.602,6.954 60.913,7.000 60.500 L 7.083 59.750 10.448 59.705 L 13.812 59.660 13.880 60.122 C 13.945 60.564,13.947 60.562,13.932 60.083 L 13.917 59.583 10.512 59.538 C 6.798 59.489,6.841 59.478,6.836 60.458 L 6.833 61.000 5.590 61.000 C 3.257 61.000,0.667 59.260,0.667 57.692 C 0.667 57.506,0.592 57.307,0.500 57.250 C 0.126 57.019,0.289 43.050,0.667 42.952 C 0.948 42.878,1.168 42.333,0.917 42.333 C 0.871 42.333,0.833 42.410,0.833 42.504 M134.413 49.375 C 134.281 49.736,134.244 59.306,134.375 59.224 C 134.444 59.182,134.500 56.939,134.500 54.240 L 134.500 49.333 135.069 49.333 C 135.383 49.333,135.677 49.427,135.723 49.542 C 135.773 49.666,135.812 49.633,135.820 49.458 C 135.836 49.104,134.541 49.027,134.413 49.375 M173.542 49.286 C 173.794 49.324,174.206 49.324,174.458 49.286 C 174.710 49.248,174.504 49.217,174.000 49.217 C 173.496 49.217,173.290 49.248,173.542 49.286 M211.912 49.375 C 211.869 49.490,211.815 51.758,211.792 54.417 L 211.750 59.250 193.377 59.292 L 175.005 59.335 174.957 54.376 L 174.909 49.417 174.913 54.417 L 174.917 59.417 193.232 59.459 C 206.628 59.490,211.608 59.451,211.774 59.314 C 211.955 59.163,212.000 58.151,212.000 54.230 L 212.000 49.333 212.750 49.333 L 213.500 49.333 213.503 54.208 C 213.504 56.890,213.565 59.177,213.638 59.292 C 213.743 59.458,217.595 59.493,232.344 59.459 L 250.917 59.417 250.921 54.417 L 250.924 49.417 250.876 54.376 L 250.828 59.335 232.289 59.292 L 213.750 59.250 213.706 54.208 L 213.662 49.167 212.826 49.167 C 212.309 49.167,211.960 49.246,211.912 49.375 M251.000 49.232 C 251.000 49.269,251.300 49.327,251.667 49.362 C 252.033 49.397,252.333 49.367,252.333 49.296 C 252.333 49.225,252.033 49.167,251.667 49.167 C 251.300 49.167,251.000 49.196,251.000 49.232 M289.415 49.367 C 289.371 49.486,289.315 51.758,289.292 54.417 L 289.250 59.250 270.917 59.334 L 252.583 59.419 270.941 59.459 C 287.550 59.496,289.307 59.475,289.399 59.236 C 289.454 59.091,289.500 56.800,289.500 54.144 L 289.500 49.316 290.375 49.366 L 291.250 49.417 291.333 54.417 L 291.417 59.417 309.958 59.459 L 328.500 59.501 328.503 54.626 C 328.505 49.195,328.470 49.381,329.503 49.291 L 330.250 49.225 329.394 49.196 C 328.286 49.158,328.338 48.891,328.336 54.625 L 328.333 59.333 309.919 59.333 L 291.505 59.333 291.461 54.292 L 291.417 49.250 290.456 49.200 C 289.783 49.165,289.472 49.215,289.415 49.367 M173.039 54.375 L 173.000 59.333 165.208 59.357 C 160.923 59.370,152.542 59.431,146.583 59.491 C 136.117 59.597,136.382 59.602,154.380 59.634 C 169.246 59.660,173.027 59.624,173.091 59.456 C 173.136 59.341,173.151 57.035,173.125 54.331 L 173.078 49.417 173.039 54.375 M330.246 54.417 L 330.250 59.417 348.708 59.459 C 358.860 59.482,367.167 59.445,367.167 59.376 C 367.167 59.307,358.880 59.269,348.752 59.293 L 330.338 59.336 330.290 54.376 L 330.242 49.417 330.246 54.417 M252.407 54.500 C 252.407 57.204,252.430 58.310,252.458 56.958 C 252.486 55.606,252.486 53.394,252.458 52.042 C 252.430 50.690,252.407 51.796,252.407 54.500 M135.740 54.583 C 135.740 57.242,135.763 58.306,135.791 56.948 C 135.819 55.590,135.819 53.415,135.791 52.115 C 135.763 50.814,135.740 51.925,135.740 54.583 M22.792 51.623 C 23.273 51.657,24.060 51.657,24.542 51.623 C 25.023 51.589,24.629 51.562,23.667 51.562 C 22.704 51.562,22.310 51.589,22.792 51.623 M21.334 52.082 C 21.033 52.644,21.484 53.177,22.234 53.145 L 22.750 53.123 22.184 53.020 C 21.417 52.880,21.165 52.462,21.575 52.010 C 21.745 51.821,21.811 51.667,21.721 51.667 C 21.630 51.667,21.456 51.853,21.334 52.082 M25.895 52.248 C 26.048 52.745,26.094 52.791,26.139 52.493 C 26.170 52.290,26.085 52.014,25.951 51.880 C 25.736 51.665,25.729 51.709,25.895 52.248 M23.303 53.375 C 23.270 53.608,23.142 53.742,22.965 53.728 C 22.808 53.716,22.696 53.786,22.715 53.885 C 22.734 53.983,22.600 54.095,22.417 54.133 C 21.875 54.246,21.707 54.474,21.807 54.959 L 21.901 55.417 21.993 54.917 C 22.081 54.437,22.125 54.415,23.043 54.367 L 24.000 54.317 24.000 54.907 C 24.000 55.317,23.898 55.561,23.667 55.705 C 23.281 55.946,23.231 56.167,23.563 56.167 C 24.227 56.167,24.351 54.288,23.692 54.195 C 23.382 54.151,23.322 54.065,23.399 53.778 C 23.452 53.579,23.496 53.360,23.498 53.292 C 23.499 53.223,23.685 53.167,23.910 53.167 C 24.313 53.167,24.322 53.196,24.376 54.708 L 24.431 56.250 24.465 54.625 L 24.500 53.000 23.928 53.000 C 23.462 53.000,23.347 53.069,23.303 53.375 M376.125 53.343 C 375.965 53.438,375.833 53.625,375.833 53.758 C 375.833 53.902,375.672 54.000,375.437 54.000 C 374.779 54.000,374.684 54.287,374.860 55.750 C 374.949 56.483,375.062 57.587,375.112 58.203 C 375.174 58.959,375.293 59.393,375.477 59.537 C 375.710 59.719,375.723 59.713,375.564 59.500 C 375.385 59.260,375.162 57.522,375.078 55.724 C 375.057 55.251,374.988 54.782,374.926 54.682 C 374.751 54.399,374.979 54.167,375.432 54.167 C 375.672 54.167,375.889 54.045,375.951 53.875 C 376.109 53.447,376.339 53.338,377.083 53.338 C 377.828 53.338,378.058 53.447,378.215 53.875 C 378.285 54.063,378.499 54.167,378.820 54.167 L 379.316 54.167 379.250 55.125 C 378.913 59.996,379.061 59.667,377.212 59.667 C 376.322 59.667,375.851 59.727,375.917 59.833 C 375.973 59.925,376.544 60.000,377.184 60.000 C 378.816 60.000,379.081 59.702,379.227 57.709 C 379.286 56.907,379.395 55.860,379.470 55.383 C 379.630 54.352,379.476 54.000,378.865 54.000 C 378.555 54.000,378.360 53.881,378.248 53.625 C 378.062 53.201,376.672 53.016,376.125 53.343 M26.190 53.500 C 26.190 53.637,26.255 53.900,26.333 54.083 C 26.424 54.293,26.477 54.324,26.477 54.167 C 26.477 54.029,26.412 53.767,26.333 53.583 C 26.243 53.373,26.190 53.342,26.190 53.500 M376.875 53.948 C 377.035 53.990,377.298 53.990,377.458 53.948 C 377.619 53.906,377.488 53.872,377.167 53.872 C 376.846 53.872,376.715 53.906,376.875 53.948 M26.582 54.958 C 26.628 55.256,26.713 55.728,26.770 56.007 C 26.973 57.004,26.595 57.167,24.067 57.167 C 22.771 57.167,21.810 57.098,21.750 57.000 C 21.693 56.908,21.562 56.833,21.458 56.833 C 21.355 56.833,21.415 56.943,21.593 57.078 C 21.838 57.263,22.444 57.324,24.096 57.328 C 26.977 57.335,27.362 57.021,26.746 55.167 C 26.558 54.603,26.518 54.551,26.582 54.958 M375.912 55.870 C 375.857 56.012,375.878 56.568,375.959 57.106 L 376.105 58.083 376.237 57.026 C 376.367 55.988,376.155 55.235,375.912 55.870 M376.115 56.625 C 376.073 56.785,376.039 56.654,376.039 56.333 C 376.039 56.012,376.073 55.881,376.115 56.042 C 376.157 56.202,376.157 56.465,376.115 56.625 M376.944 55.944 C 376.883 56.006,376.847 56.624,376.864 57.319 L 376.894 58.583 377.006 57.333 L 377.118 56.083 377.101 57.542 C 377.091 58.344,377.140 59.000,377.208 59.000 C 377.277 59.000,377.333 58.288,377.333 57.417 C 377.333 55.965,377.248 55.641,376.944 55.944 M378.000 56.573 C 378.000 56.981,378.079 57.362,378.176 57.422 C 378.292 57.494,378.338 57.243,378.312 56.682 C 378.265 55.640,378.000 55.548,378.000 56.573 M7.968 61.084 C 7.876 61.876,7.732 61.833,10.521 61.833 L 12.986 61.833 12.951 61.208 L 12.917 60.583 10.477 60.537 L 8.037 60.491 7.968 61.084 M12.833 60.833 C 12.833 60.937,11.944 61.000,10.500 61.000 C 9.056 61.000,8.167 60.937,8.167 60.833 C 8.167 60.730,9.056 60.667,10.500 60.667 C 11.944 60.667,12.833 60.730,12.833 60.833 M12.833 61.500 C 12.833 61.603,11.913 61.667,10.407 61.667 C 8.832 61.667,8.016 61.608,8.083 61.500 C 8.144 61.402,9.141 61.333,10.510 61.333 C 11.948 61.333,12.833 61.397,12.833 61.500 " stroke="none" fill="#c7c7c7" fill-rule="evenodd"></path></g></svg>