<svg width="21" height="30" viewBox="0 0 21 30" fill="none" xmlns="http://www.w3.org/2000/svg">
<path d="M10.4669 30C7.57111 26.692 5.0677 23.2905 2.99398 19.59C1.76095 17.4034 0.696068 15.1606 0.229013 12.6936C-0.574321 8.41378 0.733433 4.82543 4.18964 2.20891C7.66452 -0.407596 11.5131 -0.706626 15.3429 1.3492C19.2101 3.40503 21.0597 6.8065 20.8541 11.1798C20.7981 12.5254 20.4245 13.8898 19.9387 15.1606C17.865 20.7301 14.3341 25.365 10.4669 30ZM10.4295 6.8065C8.37445 6.8065 6.69305 8.48854 6.71173 10.5444C6.71173 12.6002 8.39313 14.2822 10.4482 14.2822C12.5032 14.2822 14.1846 12.6002 14.1846 10.5444C14.1659 8.48854 12.5032 6.8065 10.4295 6.8065Z" fill="#E5E5E5"/>
</svg>
