<svg width="30" height="30" viewBox="0 0 30 30" fill="none" xmlns="http://www.w3.org/2000/svg">
<path d="M7.8549 0C8.33828 0 8.82166 0 9.30504 0C9.36949 0.0161262 9.43394 0.0483787 9.50645 0.0564418C10.6021 0.177388 11.6333 0.49185 12.6001 1.01595C12.8256 1.1369 13.0432 1.17721 13.2929 1.1369C14.4691 0.967573 15.6454 0.967573 16.8135 1.10465C20.036 1.49974 22.8638 2.78177 25.1679 5.0717C28.6644 8.5469 30.0339 12.7558 29.2525 17.6421C29.2202 17.8437 29.2444 18.0856 29.325 18.271C30.1789 20.3513 30.2353 22.4477 29.4216 24.5441C27.6412 29.132 22.3079 31.2687 17.8367 29.2207C17.6836 29.1481 17.4903 29.1159 17.3211 29.1401C15.307 29.3981 13.3171 29.3417 11.3675 28.7692C6.59812 27.3823 3.31114 24.3587 1.60321 19.6821C0.797575 17.4728 0.652561 15.1828 1.0151 12.8607C1.04732 12.6591 0.990926 12.4333 0.918419 12.2317C0.749237 11.756 0.515604 11.3045 0.37059 10.8288C0.209464 10.2724 0.120845 9.69186 0 9.12744C0 8.65978 0 8.20018 0 7.73252C0.0161126 7.66802 0.0483379 7.60351 0.0563942 7.53095C0.418928 4.16863 2.83582 1.2901 6.09863 0.354777C6.67063 0.201578 7.26679 0.120947 7.8549 0ZM14.7511 5.60386C14.2033 5.65224 13.6474 5.68449 13.0996 5.749C11.8428 5.91026 10.6424 6.2731 9.56284 6.95846C6.84786 8.68397 6.59006 12.6833 9.46617 14.562C10.2235 15.0619 11.0452 15.4247 11.9072 15.6586C13.3413 16.0456 14.7914 16.3842 16.2335 16.7551C16.878 16.9164 17.5144 17.118 18.0542 17.5373C18.9404 18.2146 19.0773 19.4079 18.2959 20.2062C17.9575 20.5529 17.5064 20.8431 17.0552 21.0367C16.0482 21.464 14.9767 21.4801 13.9052 21.3108C12.8659 21.1415 12.0684 20.6254 11.5447 19.7062C11.3352 19.3273 11.166 18.9241 10.9405 18.5613C10.7552 18.2549 10.5538 17.9404 10.304 17.6905C9.77231 17.1664 8.82972 17.0777 8.09659 17.4324C7.38764 17.7711 7.00093 18.4081 7.05733 19.2144C7.0815 19.5127 7.12178 19.8191 7.22651 20.1013C7.8549 21.843 9.09558 23.0041 10.7713 23.7217C11.7944 24.1571 12.8659 24.3506 13.9696 24.4232C15.7743 24.536 17.5628 24.4554 19.2626 23.7781C21.3815 22.9315 22.8477 21.5204 23.0974 19.1338C23.2989 17.1906 22.6463 15.6344 20.9464 14.57C19.9958 13.9734 18.9646 13.5944 17.885 13.3203C16.5477 12.9816 15.2023 12.6752 13.873 12.3446C13.2204 12.1834 12.584 11.9415 12.0522 11.498C11.4077 10.9578 11.3594 10.1192 11.9717 9.53866C12.2536 9.27258 12.6162 9.04681 12.9787 8.90167C13.9294 8.53077 14.9283 8.57109 15.9273 8.7001C16.7088 8.80492 17.305 9.19195 17.7561 9.81281C17.9253 10.0466 18.0703 10.3047 18.2395 10.5465C18.4328 10.8368 18.6262 11.1352 18.8357 11.4174C19.3351 12.0705 20.028 12.1672 20.7692 12.006C21.5345 11.8366 22.0421 11.3367 22.2193 10.5869C22.4288 9.70799 22.0904 8.93393 21.5909 8.2405C21.0189 7.45838 20.2616 6.90202 19.3915 6.4908C17.9253 5.78125 16.3624 5.5958 14.7511 5.60386Z" fill="#E5E5E5"/>
</svg>
